<svg width="643" height="227" viewBox="0 0 643 227" fill="none" xmlns="http://www.w3.org/2000/svg">
<path d="M510.416 119.457L497.077 120.433L496.904 120.716C495.749 120.637 494.59 120.637 493.435 120.716C477.179 121.911 465.244 139.778 466.757 160.649C468.271 181.52 482.698 197.468 498.954 196.288C500.11 196.19 501.259 196.012 502.391 195.753L502.596 196.021L515.935 195.046C532.19 193.866 544.126 175.999 542.612 155.128C541.098 134.257 526.672 118.278 510.416 119.457Z" fill="#263238" stroke="#263238" stroke-linecap="round" stroke-linejoin="round"/>
<path d="M237.302 139.306L223.963 140.281L223.806 140.564C222.651 140.485 221.492 140.485 220.337 140.564C204.081 141.744 192.13 159.626 193.659 180.481C195.189 201.337 209.6 217.316 225.855 216.137C227.007 216.039 228.15 215.86 229.277 215.602L229.482 215.869L242.82 214.894C259.076 213.714 271.027 195.848 269.498 174.977C267.969 154.106 253.526 138.126 237.302 139.306Z" fill="#263238" stroke="#263238" stroke-linecap="round" stroke-linejoin="round"/>
<path d="M637.371 111.358L630.97 111.814L622.314 72.148C621.82 69.7974 620.489 67.7051 618.567 66.2591C616.644 64.813 614.262 64.1113 611.86 64.2841L576.006 66.8949L513.27 9.48828C509.911 6.41333 505.957 4.05566 501.651 2.56002C497.346 1.06437 492.779 0.462311 488.232 0.790776L333.874 12.0047C330.53 12.2358 327.269 13.1427 324.287 14.6703C321.306 16.1979 318.667 18.3144 316.531 20.891L59.5302 151.81L62.9675 198.993L460.467 170.101L560.176 162.143L633.792 151.935V151.589L639.862 151.149C640.182 151.127 640.493 151.043 640.78 150.9C641.066 150.758 641.321 150.56 641.531 150.319C641.74 150.078 641.9 149.798 642 149.495C642.101 149.192 642.141 148.872 642.117 148.554L639.547 113.292C639.503 112.753 639.252 112.251 638.847 111.891C638.442 111.531 637.913 111.34 637.371 111.358V111.358Z" fill="#5D6CAB" stroke="#263238" stroke-linecap="round" stroke-linejoin="round"/>
<path d="M527.255 157.991L527.744 164.754L560.287 162.159L633.903 151.951V151.605L639.973 151.165C640.432 151.129 640.871 150.961 641.238 150.682C641.604 150.403 641.882 150.025 642.038 149.592L527.255 157.991Z" fill="#263238" stroke="#263238" stroke-linecap="round" stroke-linejoin="round"/>
<path d="M560.287 162.159C560.605 162.124 560.913 162.028 561.193 161.875C561.474 161.723 561.721 161.516 561.922 161.268C562.122 161.02 562.272 160.734 562.362 160.428C562.452 160.123 562.481 159.802 562.447 159.485C562.413 159.168 562.316 158.861 562.163 158.581C562.01 158.301 561.803 158.054 561.554 157.854C561.305 157.654 561.019 157.504 560.712 157.415C560.406 157.325 560.084 157.296 559.766 157.33L522.367 160.051L372.298 9.28381L333.937 12.0677C330.593 12.2987 327.332 13.2056 324.35 14.7332C321.369 16.2608 318.73 18.3773 316.594 20.9539L59.5933 151.873L63.0306 199.056L460.53 170.164L560.287 162.159Z" fill="#263238" stroke="#263238" stroke-linecap="round" stroke-linejoin="round"/>
<path d="M43.1169 80.3737L7.60988 69.2227L1.28734 84.5573L2.34374 94.8119L49.6917 104.642L43.1169 80.3737Z" fill="#263238" stroke="#263238" stroke-linecap="round" stroke-linejoin="round"/>
<path d="M191.736 107.268L149.654 81.0344L136.504 53.4791L104.277 54.7846C104.277 54.7846 62.1948 54.1397 56.976 56.7505C51.7571 59.3614 34.6186 84.9663 34.6186 84.9663L18.1737 100.049L40.5312 111.2L63.5508 120.385L65.5217 142.027L87.879 144.009L117.474 134.824L133.24 121.707L191.736 107.268Z" fill="#5D6CAB" stroke="#263238" stroke-linecap="round" stroke-linejoin="round"/>
<path d="M60.8704 63.9696L86.5232 107.268L77.3153 128.91L77.4415 136.837L86.5232 138.756" stroke="#263238" stroke-linecap="round" stroke-linejoin="round"/>
<path d="M121.605 147.72L108.266 148.68L100.461 162.127C96.2027 169.925 94.2817 178.78 94.9275 187.637C95.5732 196.493 98.7584 204.978 104.103 212.079L113.784 224.236L127.123 223.277C143.379 222.097 155.314 204.215 153.785 183.36C152.255 162.505 137.86 146.525 121.605 147.72Z" fill="#263238" stroke="#263238" stroke-linecap="round" stroke-linejoin="round"/>
<path d="M110.181 224.347C126.439 223.165 138.382 205.295 136.858 184.434C135.333 163.573 120.917 147.62 104.66 148.802C88.4016 149.985 76.4579 167.855 77.9827 188.716C79.5074 209.577 93.9232 225.53 110.181 224.347Z" fill="#636363" stroke="#263238" stroke-linecap="round" stroke-linejoin="round"/>
<path d="M109.623 216.708C122.589 215.765 132.114 201.51 130.898 184.867C129.681 168.225 118.184 155.499 105.218 156.442C92.2515 157.385 82.7262 171.64 83.9426 188.282C85.1589 204.925 96.6564 217.651 109.623 216.708Z" fill="white" stroke="#263238" stroke-linecap="round" stroke-linejoin="round"/>
<path d="M112.349 186.364C112.602 189.887 110.584 192.891 107.856 193.095C105.128 193.3 102.684 190.61 102.432 187.087C102.18 183.564 104.182 180.56 106.926 180.356C109.669 180.151 112.097 182.841 112.349 186.364Z" fill="white" stroke="#263238" stroke-linecap="round" stroke-linejoin="round"/>
<path d="M418.684 126.126L405.346 127.085L397.462 140.533C393.204 148.331 391.283 157.186 391.928 166.042C392.574 174.899 395.759 183.383 401.104 190.484L410.785 202.658L424.124 201.683C440.38 200.503 452.315 182.636 450.802 161.765C449.288 140.894 434.94 124.946 418.684 126.126Z" fill="#263238" stroke="#263238" stroke-linecap="round" stroke-linejoin="round"/>
<path d="M433.899 162.992C435.476 183.863 423.478 201.73 407.222 202.909C390.966 204.089 376.508 188.141 375.042 167.223C373.575 146.305 385.448 128.485 401.703 127.306C417.959 126.126 432.386 142.137 433.899 162.992Z" fill="#636363" stroke="#263238" stroke-linecap="round" stroke-linejoin="round"/>
<path d="M427.955 163.432C429.169 180.073 419.646 194.338 406.67 195.281C393.694 196.225 382.2 183.486 380.986 166.845C379.772 150.205 389.295 135.94 402.271 134.997C415.247 134.053 426.741 146.777 427.955 163.432Z" fill="white" stroke="#263238" stroke-linecap="round" stroke-linejoin="round"/>
<path d="M409.429 164.769C409.682 168.292 407.679 171.312 404.936 171.501C402.192 171.69 399.764 169.016 399.512 165.493C399.26 161.97 401.262 158.966 404.005 158.777C406.749 158.588 409.177 161.262 409.429 164.769Z" fill="white" stroke="#263238" stroke-linecap="round" stroke-linejoin="round"/>
<path d="M513.27 9.55123C512.75 9.0794 512.198 8.65474 511.693 8.21436L391.439 16.959L395.775 76.2216L572.128 63.4191L513.27 9.55123Z" fill="#263238" stroke="#263238" stroke-linecap="round" stroke-linejoin="round"/>
<path d="M535.139 118.781L528.123 119.284L517.622 71.283L473.159 74.4286L410.423 17.0219C407.062 13.9485 403.108 11.5919 398.803 10.0963C394.498 8.60075 389.932 7.99783 385.385 8.32443L243.688 18.6262C240.345 18.857 237.085 19.7623 234.104 21.287C231.123 22.8118 228.483 24.9243 226.344 27.4967L140.241 94.4344L127.013 105.066L116.685 129.57L78.5452 144.009L47.3109 155.018C44.4117 159.574 43.0575 164.939 43.4481 170.321L45.6239 200.204L72.0335 198.285L71.3083 188.33C70.4411 176.392 77.3627 176.377 83.701 167.884C90.3073 159.092 88.8568 166.594 97.8912 156.308L107.746 141.288C127.265 139.872 140.556 154.782 145.16 175.999L148.787 192.655L369.523 176.628L368.798 166.657C367.016 142.31 375.594 121.832 402.539 119.866C426.536 118.121 436.265 133.298 441.578 154.468L445.567 170.4L531.039 159.39V159.06L538.04 158.541L535.139 118.781Z" fill="#5D6CAB" stroke="#263238" stroke-linecap="round" stroke-linejoin="round"/>
<path d="M227.826 36.3357L153.879 93.4436L299.108 82.8902L294.867 24.6971L243.435 28.4404C240.437 28.6531 237.513 29.461 234.832 30.8168C232.152 32.1727 229.77 34.049 227.826 36.3357V36.3357Z" fill="#263238" stroke="#263238" stroke-linecap="round" stroke-linejoin="round"/>
<path d="M214.708 89.024L256.522 27.4495L243.435 28.4088C240.44 28.6175 237.516 29.4206 234.836 30.771C232.156 32.1213 229.772 33.9918 227.826 36.2728L201.953 56.2472L177.924 91.7292L214.708 89.024Z" fill="white" stroke="#263238" stroke-linecap="round" stroke-linejoin="round"/>
<path d="M299.108 82.8902L296.065 41.0856L266.029 85.2966L299.108 82.8902Z" fill="white" stroke="#263238" stroke-linecap="round" stroke-linejoin="round"/>
<path d="M406.213 26.1126L441.72 57.411C442.903 58.4556 443.785 59.7968 444.274 61.2958V61.2958C444.698 62.5829 444.821 63.9498 444.634 65.2917C444.446 66.6336 443.953 67.9147 443.191 69.0369C442.43 70.159 441.422 71.0924 440.243 71.7653C439.064 72.4382 437.746 72.8327 436.391 72.9187L308.773 82.1824L304.516 23.9893L382.862 18.2958C387.08 17.9747 391.321 18.501 395.332 19.8437C399.342 21.1863 403.042 23.318 406.213 26.1126Z" fill="#263238" stroke="#263238" stroke-linecap="round" stroke-linejoin="round"/>
<path d="M374.569 18.8778L361.75 19.8058L319.936 81.3803L332.771 80.4524L374.569 18.8778Z" fill="white" stroke="#263238" stroke-linecap="round" stroke-linejoin="round"/>
<path d="M304.895 28.0786L308.285 74.5858L344.627 21.0482L307.843 23.722L304.895 28.0786Z" fill="white" stroke="#263238" stroke-linecap="round" stroke-linejoin="round"/>
<path d="M517.622 71.2831L611.86 64.4258C614.262 64.253 616.644 64.9546 618.567 66.4007C620.489 67.8467 621.82 69.9391 622.314 72.2897L630.97 111.955L528.122 119.426L517.622 71.2831Z" fill="#5D6CAB" stroke="#5D6CAB" stroke-linecap="round" stroke-linejoin="round"/>
<path d="M608.7 86.4561L564.01 89.7064L565.348 108.012L610.038 104.762L608.7 86.4561Z" fill="white" stroke="#263238" stroke-linecap="round" stroke-linejoin="round"/>
<path d="M636.425 118.954L444.936 132.873" stroke="#263238" stroke-width="2" stroke-linecap="round" stroke-linejoin="round"/>
<path d="M359.354 139.086L147.147 154.515" stroke="#263238" stroke-width="2" stroke-linecap="round" stroke-linejoin="round"/>
<path d="M76.6846 159.626L52.4036 161.388" stroke="#263238" stroke-width="2" stroke-linecap="round" stroke-linejoin="round"/>
<path d="M556.251 90.7069L514.027 93.8525C512.073 93.992 510.197 94.6724 508.609 95.8171C507.022 96.9618 505.785 98.5254 505.04 100.332L499.001 114.928C498.725 115.599 498.626 116.329 498.713 117.049C498.799 117.769 499.068 118.455 499.494 119.042C499.92 119.629 500.49 120.098 501.148 120.405C501.807 120.712 502.533 120.846 503.258 120.794L558.142 116.799L556.251 90.7069Z" fill="#C1C9EC" stroke="#263238" stroke-linecap="round" stroke-linejoin="round"/>
<path d="M556.282 90.7227L522.257 93.1919L527.886 118.938L558.19 116.737L556.282 90.7227Z" fill="#C1C9EC" stroke="#263238" stroke-linecap="round" stroke-linejoin="round"/>
<path d="M625.105 85.7212L614.809 86.4604L616.575 112.506L630.733 111.468L625.105 85.7212Z" fill="#C1C9EC" stroke="#263238" stroke-linecap="round" stroke-linejoin="round"/>
<path d="M162.376 80.5102L141.571 82.0232C139.834 82.1495 138.529 83.6565 138.656 85.3892L139.869 101.985C139.995 103.718 141.506 105.02 143.243 104.894L164.047 103.381C165.784 103.254 167.09 101.747 166.963 100.015L165.75 83.4187C165.623 81.686 164.113 80.3838 162.376 80.5102Z" fill="#263238" stroke="#263238" stroke-linecap="round" stroke-linejoin="round"/>
<path d="M296.439 93.7602L270.382 95.6553L271.142 106.055L297.199 104.16L296.439 93.7602Z" fill="#263238" stroke="#263238" stroke-linecap="round" stroke-linejoin="round"/>
<path d="M302.372 89.2756L308.143 168.308" stroke="#263238" stroke-linecap="round" stroke-linejoin="round"/>
<path d="M128.794 137.434C128.794 137.434 148.661 146.792 153.785 183.36L356.374 168.638" stroke="#263238" stroke-linecap="round" stroke-linejoin="round"/>
<path d="M449.95 129.775C449.95 129.775 438.078 104.5 404.652 106.938C381.364 108.621 371.131 121.628 366.259 131.678" stroke="#263238" stroke-linecap="round" stroke-linejoin="round"/>
<path d="M615 167L559 176" stroke="#263238" stroke-linecap="round" stroke-linejoin="round"/>
<path d="M592 180L548 187" stroke="#263238" stroke-linecap="round" stroke-linejoin="round"/>
</svg>
