<svg width="357" height="356" viewBox="0 0 357 356" fill="none" xmlns="http://www.w3.org/2000/svg">
<path d="M356.938 151.538L309.669 179.25L356.386 207.844L302.857 219.624L338.443 261.224L283.874 255.924L304.828 306.457L254.579 284.596L258.852 339.124L217.842 302.84L205.008 356L177.243 308.848L148.563 355.465L136.769 302.069L95.0498 337.567L100.379 283.133L49.7199 304.035L71.6359 253.91L16.9721 258.173L53.3463 217.249L0.0384521 204.462L47.3076 176.765L0.574521 148.156L54.1189 136.392L18.533 94.7761L73.1022 100.076L52.1323 49.5427L102.397 71.4045L98.1085 16.8917L139.134 53.1759L151.968 0L179.734 47.1521L208.398 0.534747L220.207 53.9465L261.911 18.4488L256.597 72.8829L307.256 51.9648L285.34 102.105L340.004 97.8273L303.63 138.751L356.938 151.538Z" fill="white"/>
<path opacity="0.5" d="M316.212 157.577L279.727 178.967L315.802 201.033L274.477 210.124L301.943 242.225L259.83 238.135L276.006 277.14L237.22 260.264L240.515 302.352L208.855 274.341L198.954 315.391L177.526 278.996L155.39 314.966L146.292 273.759L114.096 301.157L118.196 259.148L79.0936 275.285L96.0115 236.594L53.8351 239.881L81.9001 208.3L40.7643 198.423L77.2489 177.048L41.1743 154.967L82.4993 145.876L55.0333 113.775L97.1467 117.864L80.9699 78.8594L119.756 95.7354L116.461 53.6477L148.121 81.659L158.007 40.625L179.45 77.0193L201.571 41.0339L210.684 82.2566L242.88 54.8587L238.765 96.8678L277.867 80.731L260.965 119.422L303.141 116.119L275.076 147.716L316.212 157.577Z" fill="#E0E0E0"/>
<path d="M81.1276 97.324L76.1452 103.552L85.495 108.522L87.9862 102.31L81.1276 97.324Z" fill="#263238" stroke="#263238" stroke-linecap="round" stroke-linejoin="round"/>
<path d="M304.434 98.5664L299.452 104.795L308.802 109.78L311.293 103.552L304.434 98.5664Z" fill="#263238" stroke="#263238" stroke-linecap="round" stroke-linejoin="round"/>
<path d="M74.8839 110.394L69.9015 116.622L79.2513 121.592L81.7583 115.38L74.8839 110.394Z" fill="#263238" stroke="#263238" stroke-linecap="round" stroke-linejoin="round"/>
<path d="M56.1844 91.1115L58.0448 99.8247L65.5341 99.1956L56.1844 91.1115Z" fill="#263238" stroke="#263238" stroke-linecap="round" stroke-linejoin="round"/>
<path d="M304.671 124.329L313.437 122.599L312.932 115.128L304.671 124.329Z" fill="#263238" stroke="#263238" stroke-linecap="round" stroke-linejoin="round"/>
<path d="M273.247 97.9531L282.014 96.2388L281.509 88.7523L273.247 97.9531Z" fill="#263238" stroke="#263238" stroke-linecap="round" stroke-linejoin="round"/>
<path d="M103.58 68.715L105.456 77.4282L112.945 76.7991L103.58 68.715Z" fill="#263238" stroke="#263238" stroke-linecap="round" stroke-linejoin="round"/>
<path d="M290.086 126.578L291.962 135.291L299.452 134.662L290.086 126.578Z" fill="#263238" stroke="#263238" stroke-linecap="round" stroke-linejoin="round"/>
<path d="M47.4495 88.6107L40.5909 92.9673C40.5909 92.9673 48.695 97.953 49.9406 96.1129C51.1862 94.2727 47.4495 88.6107 47.4495 88.6107Z" fill="#263238" stroke="#263238" stroke-linecap="round" stroke-linejoin="round"/>
<path d="M81.1276 51.9019L77.3908 56.8876L84.2178 59.2782L86.1257 53.1444L81.1276 51.9019Z" fill="#263238" stroke="#263238" stroke-linecap="round" stroke-linejoin="round"/>
</svg>
