<svg width="15" height="15" viewBox="0 0 15 15" fill="none" xmlns="http://www.w3.org/2000/svg">
<g clip-path="url(#clip0_11_283)">
<mask id="mask0_11_283" style="mask-type:luminance" maskUnits="userSpaceOnUse" x="0" y="0" width="82" height="15">
<path d="M82 0H0V15H82V0Z" fill="white"/>
</mask>
<g mask="url(#mask0_11_283)">
<path d="M0 0.00402832H15.375V14.996H0V0.00402832ZM16.6562 0.00402832H32.0312V14.996H16.6562V0.00402832ZM33.3125 0.00402832H48.6875V14.996H33.3125V0.00402832ZM49.9688 0.00402832H65.3438V14.996H49.9688V0.00402832ZM66.625 0.00402832H82V14.996H66.625V0.00402832Z" fill="#00B67A"/>
<path d="M7.68749 10.108L10.0258 9.5302L11.0027 12.4661L7.68749 10.108ZM13.0687 6.31317H8.95273L7.68749 2.53394L6.42226 6.31317H2.30624L5.63749 8.65567L4.37226 12.4349L7.70351 10.0924L9.75351 8.65567L13.0687 6.31317ZM24.3437 10.108L26.682 9.5302L27.659 12.4661L24.3437 10.108ZM29.725 6.31317H25.609L24.3437 2.53394L23.0785 6.31317H18.9625L22.2937 8.65567L21.0285 12.4349L24.3598 10.0924L26.4098 8.65567L29.725 6.31317ZM41 10.108L43.3383 9.5302L44.3152 12.4661L41 10.108ZM46.3812 6.31317H42.2652L41 2.53394L39.7348 6.31317H35.6187L38.95 8.65567L37.6848 12.4349L41.016 10.0924L43.066 8.65567L46.3812 6.31317ZM57.6562 10.108L59.9945 9.5302L60.9715 12.4661L57.6562 10.108ZM63.0375 6.31317H58.9215L57.6562 2.53394L56.391 6.31317H52.275L55.6062 8.65567L54.341 12.4349L57.6723 10.0924L59.7223 8.65567L63.0375 6.31317ZM74.3125 10.108L76.6508 9.5302L77.6277 12.4661L74.3125 10.108ZM79.6937 6.31317H75.5777L74.3125 2.53394L73.0473 6.31317H68.9312L72.2625 8.65567L70.9973 12.4349L74.3285 10.0924L76.3785 8.65567L79.6937 6.31317Z" fill="white"/>
</g>
</g>
<defs>
<clipPath id="clip0_11_283">
<rect width="15" height="15" fill="white"/>
</clipPath>
</defs>
</svg>
