<svg width="1920" height="234" viewBox="0 0 1920 234" fill="none" xmlns="http://www.w3.org/2000/svg">
<path d="M331.856 222.057V224H324.307V222.057H331.856ZM325 209.781V224H322.549V209.781H325ZM330.87 215.719V217.633H324.307V215.719H330.87ZM331.807 209.781V211.734H324.307V209.781H331.807ZM336.377 215.582V224H334.023V213.434H336.24L336.377 215.582ZM335.996 218.326L335.195 218.316C335.195 217.587 335.286 216.913 335.469 216.295C335.651 215.676 335.918 215.139 336.27 214.684C336.621 214.221 337.057 213.867 337.578 213.619C338.105 213.365 338.714 213.238 339.404 213.238C339.886 213.238 340.326 213.31 340.723 213.453C341.126 213.59 341.475 213.808 341.768 214.107C342.067 214.407 342.295 214.791 342.451 215.26C342.614 215.729 342.695 216.295 342.695 216.959V224H340.342V217.164C340.342 216.65 340.264 216.246 340.107 215.953C339.958 215.66 339.74 215.452 339.453 215.328C339.173 215.198 338.838 215.133 338.447 215.133C338.005 215.133 337.627 215.217 337.314 215.387C337.008 215.556 336.758 215.787 336.562 216.08C336.367 216.373 336.224 216.712 336.133 217.096C336.042 217.48 335.996 217.89 335.996 218.326ZM342.549 217.701L341.445 217.945C341.445 217.307 341.533 216.705 341.709 216.139C341.891 215.566 342.155 215.064 342.5 214.635C342.852 214.199 343.285 213.857 343.799 213.609C344.313 213.362 344.902 213.238 345.566 213.238C346.107 213.238 346.589 213.313 347.012 213.463C347.441 213.606 347.806 213.834 348.105 214.146C348.405 214.459 348.633 214.866 348.789 215.367C348.945 215.862 349.023 216.461 349.023 217.164V224H346.66V217.154C346.66 216.62 346.582 216.207 346.426 215.914C346.276 215.621 346.061 215.419 345.781 215.309C345.501 215.191 345.166 215.133 344.775 215.133C344.411 215.133 344.089 215.201 343.809 215.338C343.535 215.468 343.304 215.654 343.115 215.895C342.926 216.129 342.783 216.399 342.686 216.705C342.594 217.011 342.549 217.343 342.549 217.701ZM354.365 213.434V224H352.002V213.434H354.365ZM351.845 210.66C351.845 210.302 351.962 210.006 352.197 209.771C352.438 209.531 352.77 209.41 353.193 209.41C353.61 209.41 353.938 209.531 354.179 209.771C354.42 210.006 354.541 210.302 354.541 210.66C354.541 211.012 354.42 211.305 354.179 211.539C353.938 211.773 353.61 211.891 353.193 211.891C352.77 211.891 352.438 211.773 352.197 211.539C351.962 211.305 351.845 211.012 351.845 210.66ZM363.271 221.139C363.271 220.904 363.212 220.693 363.095 220.504C362.978 220.309 362.753 220.133 362.421 219.977C362.096 219.82 361.614 219.677 360.976 219.547C360.416 219.423 359.902 219.277 359.433 219.107C358.971 218.932 358.573 218.72 358.241 218.473C357.909 218.225 357.652 217.932 357.47 217.594C357.288 217.255 357.196 216.865 357.196 216.422C357.196 215.992 357.291 215.585 357.48 215.201C357.668 214.817 357.939 214.479 358.29 214.186C358.642 213.893 359.068 213.661 359.57 213.492C360.077 213.323 360.644 213.238 361.269 213.238C362.154 213.238 362.913 213.388 363.544 213.688C364.182 213.98 364.67 214.381 365.009 214.889C365.348 215.39 365.517 215.956 365.517 216.588H363.163C363.163 216.308 363.092 216.048 362.948 215.807C362.812 215.559 362.603 215.361 362.323 215.211C362.043 215.055 361.692 214.977 361.269 214.977C360.865 214.977 360.53 215.042 360.263 215.172C360.002 215.296 359.807 215.458 359.677 215.66C359.553 215.862 359.491 216.083 359.491 216.324C359.491 216.5 359.524 216.66 359.589 216.803C359.661 216.939 359.778 217.066 359.941 217.184C360.103 217.294 360.325 217.398 360.605 217.496C360.891 217.594 361.249 217.688 361.679 217.779C362.486 217.949 363.18 218.167 363.759 218.434C364.345 218.694 364.794 219.033 365.107 219.449C365.419 219.859 365.575 220.38 365.575 221.012C365.575 221.48 365.474 221.91 365.273 222.301C365.077 222.685 364.791 223.02 364.413 223.307C364.036 223.587 363.583 223.805 363.056 223.961C362.535 224.117 361.949 224.195 361.298 224.195C360.341 224.195 359.53 224.026 358.866 223.688C358.202 223.342 357.698 222.903 357.353 222.369C357.014 221.829 356.845 221.269 356.845 220.689H359.12C359.146 221.126 359.267 221.474 359.482 221.734C359.703 221.988 359.976 222.174 360.302 222.291C360.634 222.402 360.976 222.457 361.327 222.457C361.751 222.457 362.105 222.402 362.392 222.291C362.678 222.174 362.896 222.018 363.046 221.822C363.196 221.62 363.271 221.393 363.271 221.139ZM373.964 221.139C373.964 220.904 373.905 220.693 373.788 220.504C373.671 220.309 373.446 220.133 373.114 219.977C372.789 219.82 372.307 219.677 371.669 219.547C371.109 219.423 370.595 219.277 370.126 219.107C369.664 218.932 369.266 218.72 368.934 218.473C368.602 218.225 368.345 217.932 368.163 217.594C367.981 217.255 367.889 216.865 367.889 216.422C367.889 215.992 367.984 215.585 368.173 215.201C368.361 214.817 368.632 214.479 368.983 214.186C369.335 213.893 369.761 213.661 370.262 213.492C370.77 213.323 371.337 213.238 371.962 213.238C372.847 213.238 373.606 213.388 374.237 213.688C374.875 213.98 375.363 214.381 375.702 214.889C376.04 215.39 376.21 215.956 376.21 216.588H373.856C373.856 216.308 373.785 216.048 373.641 215.807C373.505 215.559 373.296 215.361 373.016 215.211C372.736 215.055 372.385 214.977 371.962 214.977C371.558 214.977 371.223 215.042 370.956 215.172C370.695 215.296 370.5 215.458 370.37 215.66C370.246 215.862 370.184 216.083 370.184 216.324C370.184 216.5 370.217 216.66 370.282 216.803C370.354 216.939 370.471 217.066 370.634 217.184C370.796 217.294 371.018 217.398 371.298 217.496C371.584 217.594 371.942 217.688 372.372 217.779C373.179 217.949 373.873 218.167 374.452 218.434C375.038 218.694 375.487 219.033 375.8 219.449C376.112 219.859 376.268 220.38 376.268 221.012C376.268 221.48 376.167 221.91 375.966 222.301C375.77 222.685 375.484 223.02 375.106 223.307C374.729 223.587 374.276 223.805 373.749 223.961C373.228 224.117 372.642 224.195 371.991 224.195C371.034 224.195 370.223 224.026 369.559 223.688C368.895 223.342 368.391 222.903 368.046 222.369C367.707 221.829 367.538 221.269 367.538 220.689H369.813C369.839 221.126 369.96 221.474 370.175 221.734C370.396 221.988 370.669 222.174 370.995 222.291C371.327 222.402 371.669 222.457 372.02 222.457C372.443 222.457 372.798 222.402 373.085 222.291C373.371 222.174 373.589 222.018 373.739 221.822C373.889 221.62 373.964 221.393 373.964 221.139ZM381.248 213.434V224H378.885V213.434H381.248ZM378.729 210.66C378.729 210.302 378.846 210.006 379.08 209.771C379.321 209.531 379.653 209.41 380.077 209.41C380.493 209.41 380.822 209.531 381.063 209.771C381.304 210.006 381.424 210.302 381.424 210.66C381.424 211.012 381.304 211.305 381.063 211.539C380.822 211.773 380.493 211.891 380.077 211.891C379.653 211.891 379.321 211.773 379.08 211.539C378.846 211.305 378.729 211.012 378.729 210.66ZM383.777 218.834V218.609C383.777 217.848 383.888 217.141 384.109 216.49C384.331 215.833 384.65 215.263 385.066 214.781C385.49 214.293 386.004 213.915 386.609 213.648C387.221 213.375 387.911 213.238 388.68 213.238C389.454 213.238 390.145 213.375 390.75 213.648C391.362 213.915 391.88 214.293 392.303 214.781C392.726 215.263 393.048 215.833 393.27 216.49C393.491 217.141 393.602 217.848 393.602 218.609V218.834C393.602 219.596 393.491 220.302 393.27 220.953C393.048 221.604 392.726 222.174 392.303 222.662C391.88 223.144 391.365 223.521 390.76 223.795C390.154 224.062 389.467 224.195 388.699 224.195C387.924 224.195 387.231 224.062 386.619 223.795C386.014 223.521 385.499 223.144 385.076 222.662C384.653 222.174 384.331 221.604 384.109 220.953C383.888 220.302 383.777 219.596 383.777 218.834ZM386.131 218.609V218.834C386.131 219.309 386.18 219.758 386.277 220.182C386.375 220.605 386.528 220.976 386.736 221.295C386.945 221.614 387.212 221.865 387.537 222.047C387.863 222.229 388.25 222.32 388.699 222.32C389.135 222.32 389.513 222.229 389.832 222.047C390.158 221.865 390.424 221.614 390.633 221.295C390.841 220.976 390.994 220.605 391.092 220.182C391.196 219.758 391.248 219.309 391.248 218.834V218.609C391.248 218.141 391.196 217.698 391.092 217.281C390.994 216.858 390.838 216.484 390.623 216.158C390.415 215.833 390.148 215.579 389.822 215.396C389.503 215.208 389.122 215.113 388.68 215.113C388.237 215.113 387.853 215.208 387.527 215.396C387.208 215.579 386.945 215.833 386.736 216.158C386.528 216.484 386.375 216.858 386.277 217.281C386.18 217.698 386.131 218.141 386.131 218.609ZM398.308 215.689V224H395.955V213.434H398.171L398.308 215.689ZM397.888 218.326L397.127 218.316C397.133 217.568 397.237 216.881 397.439 216.256C397.647 215.631 397.934 215.094 398.298 214.645C398.67 214.195 399.112 213.85 399.627 213.609C400.141 213.362 400.714 213.238 401.345 213.238C401.853 213.238 402.312 213.31 402.722 213.453C403.139 213.59 403.494 213.814 403.787 214.127C404.086 214.439 404.314 214.846 404.47 215.348C404.627 215.842 404.705 216.451 404.705 217.174V224H402.341V217.164C402.341 216.656 402.267 216.256 402.117 215.963C401.974 215.663 401.762 215.452 401.482 215.328C401.209 215.198 400.867 215.133 400.457 215.133C400.053 215.133 399.692 215.217 399.373 215.387C399.054 215.556 398.783 215.787 398.562 216.08C398.347 216.373 398.181 216.712 398.064 217.096C397.947 217.48 397.888 217.89 397.888 218.326Z" fill="#222222"/>
<circle cx="363" cy="148" r="16" fill="#FFEAB4"/>
<circle cx="363" cy="148" r="10" fill="#F6CD60"/>
<path d="M1036.91 225H1033.87L1033.89 223.057H1036.91C1037.79 223.057 1038.52 222.865 1039.12 222.48C1039.72 222.096 1040.17 221.546 1040.46 220.83C1040.77 220.114 1040.92 219.261 1040.92 218.271V217.5C1040.92 216.732 1040.84 216.051 1040.66 215.459C1040.49 214.867 1040.24 214.368 1039.9 213.965C1039.57 213.561 1039.16 213.255 1038.67 213.047C1038.19 212.839 1037.63 212.734 1037 212.734H1033.81V210.781H1037C1037.94 210.781 1038.8 210.941 1039.59 211.26C1040.37 211.572 1041.04 212.025 1041.61 212.617C1042.18 213.21 1042.62 213.919 1042.93 214.746C1043.23 215.573 1043.38 216.497 1043.38 217.52V218.271C1043.38 219.294 1043.23 220.218 1042.93 221.045C1042.62 221.872 1042.18 222.581 1041.61 223.174C1041.03 223.76 1040.35 224.212 1039.56 224.531C1038.77 224.844 1037.89 225 1036.91 225ZM1035.23 210.781V225H1032.78V210.781H1035.23ZM1045.56 219.834V219.609C1045.56 218.848 1045.67 218.141 1045.89 217.49C1046.12 216.833 1046.43 216.263 1046.85 215.781C1047.27 215.293 1047.79 214.915 1048.39 214.648C1049.01 214.375 1049.7 214.238 1050.46 214.238C1051.24 214.238 1051.93 214.375 1052.53 214.648C1053.15 214.915 1053.66 215.293 1054.09 215.781C1054.51 216.263 1054.83 216.833 1055.05 217.49C1055.28 218.141 1055.39 218.848 1055.39 219.609V219.834C1055.39 220.596 1055.28 221.302 1055.05 221.953C1054.83 222.604 1054.51 223.174 1054.09 223.662C1053.66 224.144 1053.15 224.521 1052.54 224.795C1051.94 225.062 1051.25 225.195 1050.48 225.195C1049.71 225.195 1049.02 225.062 1048.4 224.795C1047.8 224.521 1047.28 224.144 1046.86 223.662C1046.44 223.174 1046.12 222.604 1045.89 221.953C1045.67 221.302 1045.56 220.596 1045.56 219.834ZM1047.92 219.609V219.834C1047.92 220.309 1047.96 220.758 1048.06 221.182C1048.16 221.605 1048.31 221.976 1048.52 222.295C1048.73 222.614 1049 222.865 1049.32 223.047C1049.65 223.229 1050.03 223.32 1050.48 223.32C1050.92 223.32 1051.3 223.229 1051.62 223.047C1051.94 222.865 1052.21 222.614 1052.42 222.295C1052.63 221.976 1052.78 221.605 1052.88 221.182C1052.98 220.758 1053.03 220.309 1053.03 219.834V219.609C1053.03 219.141 1052.98 218.698 1052.88 218.281C1052.78 217.858 1052.62 217.484 1052.41 217.158C1052.2 216.833 1051.93 216.579 1051.61 216.396C1051.29 216.208 1050.91 216.113 1050.46 216.113C1050.02 216.113 1049.64 216.208 1049.31 216.396C1048.99 216.579 1048.73 216.833 1048.52 217.158C1048.31 217.484 1048.16 217.858 1048.06 218.281C1047.96 218.698 1047.92 219.141 1047.92 219.609ZM1067.98 214.434V216.152H1062.03V214.434H1067.98ZM1063.74 211.846H1066.1V222.08C1066.1 222.406 1066.14 222.656 1066.24 222.832C1066.33 223.001 1066.47 223.115 1066.64 223.174C1066.8 223.232 1067 223.262 1067.23 223.262C1067.39 223.262 1067.55 223.252 1067.7 223.232C1067.85 223.213 1067.97 223.193 1068.06 223.174L1068.07 224.971C1067.88 225.029 1067.65 225.081 1067.39 225.127C1067.13 225.173 1066.84 225.195 1066.51 225.195C1065.97 225.195 1065.49 225.101 1065.07 224.912C1064.66 224.717 1064.33 224.401 1064.1 223.965C1063.86 223.529 1063.74 222.949 1063.74 222.227V211.846ZM1072.52 210V225H1070.18V210H1072.52ZM1072.11 219.326L1071.35 219.316C1071.36 218.587 1071.46 217.913 1071.65 217.295C1071.86 216.676 1072.14 216.139 1072.49 215.684C1072.86 215.221 1073.3 214.867 1073.8 214.619C1074.31 214.365 1074.87 214.238 1075.49 214.238C1076.01 214.238 1076.48 214.31 1076.9 214.453C1077.32 214.596 1077.69 214.827 1077.99 215.146C1078.3 215.459 1078.53 215.869 1078.69 216.377C1078.85 216.878 1078.93 217.49 1078.93 218.213V225H1076.57V218.193C1076.57 217.686 1076.49 217.282 1076.34 216.982C1076.2 216.683 1075.99 216.468 1075.71 216.338C1075.43 216.201 1075.09 216.133 1074.68 216.133C1074.26 216.133 1073.88 216.217 1073.56 216.387C1073.24 216.556 1072.97 216.787 1072.76 217.08C1072.54 217.373 1072.38 217.712 1072.27 218.096C1072.17 218.48 1072.11 218.89 1072.11 219.326ZM1086.37 225.195C1085.59 225.195 1084.88 225.068 1084.25 224.814C1083.63 224.554 1083.09 224.193 1082.65 223.73C1082.21 223.268 1081.88 222.725 1081.64 222.1C1081.41 221.475 1081.29 220.801 1081.29 220.078V219.688C1081.29 218.861 1081.41 218.112 1081.65 217.441C1081.9 216.771 1082.23 216.198 1082.66 215.723C1083.09 215.241 1083.6 214.873 1084.18 214.619C1084.77 214.365 1085.4 214.238 1086.09 214.238C1086.84 214.238 1087.5 214.365 1088.07 214.619C1088.64 214.873 1089.11 215.231 1089.48 215.693C1089.85 216.149 1090.13 216.693 1090.32 217.324C1090.51 217.956 1090.6 218.652 1090.6 219.414V220.42H1082.44V218.73H1088.28V218.545C1088.26 218.122 1088.18 217.725 1088.02 217.354C1087.87 216.982 1087.64 216.683 1087.33 216.455C1087.02 216.227 1086.6 216.113 1086.08 216.113C1085.69 216.113 1085.34 216.198 1085.03 216.367C1084.73 216.53 1084.48 216.768 1084.28 217.08C1084.08 217.393 1083.92 217.77 1083.81 218.213C1083.71 218.649 1083.66 219.141 1083.66 219.688V220.078C1083.66 220.54 1083.72 220.97 1083.84 221.367C1083.97 221.758 1084.16 222.1 1084.41 222.393C1084.66 222.686 1084.96 222.917 1085.31 223.086C1085.66 223.249 1086.06 223.33 1086.51 223.33C1087.07 223.33 1087.58 223.216 1088.02 222.988C1088.46 222.76 1088.85 222.438 1089.17 222.021L1090.41 223.223C1090.19 223.555 1089.89 223.874 1089.53 224.18C1089.16 224.479 1088.71 224.723 1088.19 224.912C1087.67 225.101 1087.06 225.195 1086.37 225.195ZM1100.74 214.434V225H1098.37V214.434H1100.74ZM1098.22 211.66C1098.22 211.302 1098.33 211.006 1098.57 210.771C1098.81 210.531 1099.14 210.41 1099.56 210.41C1099.98 210.41 1100.31 210.531 1100.55 210.771C1100.79 211.006 1100.91 211.302 1100.91 211.66C1100.91 212.012 1100.79 212.305 1100.55 212.539C1100.31 212.773 1099.98 212.891 1099.56 212.891C1099.14 212.891 1098.81 212.773 1098.57 212.539C1098.33 212.305 1098.22 212.012 1098.22 211.66ZM1106.05 216.689V225H1103.69V214.434H1105.91L1106.05 216.689ZM1105.63 219.326L1104.87 219.316C1104.87 218.568 1104.98 217.881 1105.18 217.256C1105.39 216.631 1105.67 216.094 1106.04 215.645C1106.41 215.195 1106.85 214.85 1107.37 214.609C1107.88 214.362 1108.45 214.238 1109.08 214.238C1109.59 214.238 1110.05 214.31 1110.46 214.453C1110.88 214.59 1111.23 214.814 1111.53 215.127C1111.83 215.439 1112.05 215.846 1112.21 216.348C1112.37 216.842 1112.44 217.451 1112.44 218.174V225H1110.08V218.164C1110.08 217.656 1110.01 217.256 1109.86 216.963C1109.71 216.663 1109.5 216.452 1109.22 216.328C1108.95 216.198 1108.61 216.133 1108.2 216.133C1107.79 216.133 1107.43 216.217 1107.11 216.387C1106.79 216.556 1106.52 216.787 1106.3 217.08C1106.09 217.373 1105.92 217.712 1105.8 218.096C1105.69 218.48 1105.63 218.89 1105.63 219.326ZM1121.17 222.139C1121.17 221.904 1121.12 221.693 1121 221.504C1120.88 221.309 1120.66 221.133 1120.32 220.977C1120 220.82 1119.52 220.677 1118.88 220.547C1118.32 220.423 1117.81 220.277 1117.34 220.107C1116.87 219.932 1116.48 219.72 1116.14 219.473C1115.81 219.225 1115.56 218.932 1115.37 218.594C1115.19 218.255 1115.1 217.865 1115.1 217.422C1115.1 216.992 1115.19 216.585 1115.38 216.201C1115.57 215.817 1115.84 215.479 1116.19 215.186C1116.55 214.893 1116.97 214.661 1117.47 214.492C1117.98 214.323 1118.55 214.238 1119.17 214.238C1120.06 214.238 1120.82 214.388 1121.45 214.688C1122.09 214.98 1122.57 215.381 1122.91 215.889C1123.25 216.39 1123.42 216.956 1123.42 217.588H1121.07C1121.07 217.308 1121 217.048 1120.85 216.807C1120.72 216.559 1120.51 216.361 1120.23 216.211C1119.95 216.055 1119.6 215.977 1119.17 215.977C1118.77 215.977 1118.43 216.042 1118.17 216.172C1117.91 216.296 1117.71 216.458 1117.58 216.66C1117.46 216.862 1117.39 217.083 1117.39 217.324C1117.39 217.5 1117.43 217.66 1117.49 217.803C1117.56 217.939 1117.68 218.066 1117.84 218.184C1118.01 218.294 1118.23 218.398 1118.51 218.496C1118.79 218.594 1119.15 218.688 1119.58 218.779C1120.39 218.949 1121.08 219.167 1121.66 219.434C1122.25 219.694 1122.7 220.033 1123.01 220.449C1123.32 220.859 1123.48 221.38 1123.48 222.012C1123.48 222.48 1123.38 222.91 1123.18 223.301C1122.98 223.685 1122.69 224.02 1122.32 224.307C1121.94 224.587 1121.49 224.805 1120.96 224.961C1120.44 225.117 1119.85 225.195 1119.2 225.195C1118.24 225.195 1117.43 225.026 1116.77 224.688C1116.11 224.342 1115.6 223.903 1115.26 223.369C1114.92 222.829 1114.75 222.269 1114.75 221.689H1117.02C1117.05 222.126 1117.17 222.474 1117.39 222.734C1117.61 222.988 1117.88 223.174 1118.21 223.291C1118.54 223.402 1118.88 223.457 1119.23 223.457C1119.65 223.457 1120.01 223.402 1120.3 223.291C1120.58 223.174 1120.8 223.018 1120.95 222.822C1121.1 222.62 1121.17 222.393 1121.17 222.139ZM1132.3 222.51V214.434H1134.66V225H1132.43L1132.3 222.51ZM1132.63 220.312L1133.42 220.293C1133.42 221.003 1133.34 221.657 1133.19 222.256C1133.03 222.848 1132.79 223.366 1132.46 223.809C1132.14 224.245 1131.72 224.587 1131.21 224.834C1130.71 225.075 1130.1 225.195 1129.39 225.195C1128.87 225.195 1128.4 225.12 1127.97 224.971C1127.54 224.821 1127.17 224.59 1126.86 224.277C1126.55 223.965 1126.31 223.558 1126.14 223.057C1125.98 222.555 1125.89 221.956 1125.89 221.26V214.434H1128.24V221.279C1128.24 221.663 1128.29 221.986 1128.38 222.246C1128.47 222.5 1128.6 222.705 1128.75 222.861C1128.91 223.018 1129.09 223.128 1129.3 223.193C1129.51 223.258 1129.73 223.291 1129.96 223.291C1130.63 223.291 1131.16 223.161 1131.54 222.9C1131.94 222.633 1132.21 222.275 1132.38 221.826C1132.54 221.377 1132.63 220.872 1132.63 220.312ZM1139.84 216.445V225H1137.48V214.434H1139.73L1139.84 216.445ZM1143.07 214.365L1143.05 216.553C1142.91 216.527 1142.75 216.507 1142.58 216.494C1142.42 216.481 1142.25 216.475 1142.09 216.475C1141.69 216.475 1141.33 216.533 1141.03 216.65C1140.72 216.761 1140.46 216.924 1140.26 217.139C1140.05 217.347 1139.9 217.601 1139.79 217.9C1139.68 218.2 1139.61 218.535 1139.59 218.906L1139.05 218.945C1139.05 218.281 1139.12 217.666 1139.25 217.1C1139.38 216.533 1139.58 216.035 1139.84 215.605C1140.1 215.176 1140.43 214.84 1140.83 214.6C1141.24 214.359 1141.7 214.238 1142.23 214.238C1142.37 214.238 1142.52 214.251 1142.69 214.277C1142.86 214.303 1142.98 214.333 1143.07 214.365ZM1150.55 222.881V217.842C1150.55 217.464 1150.48 217.139 1150.34 216.865C1150.21 216.592 1150 216.38 1149.72 216.23C1149.44 216.081 1149.1 216.006 1148.68 216.006C1148.3 216.006 1147.97 216.071 1147.69 216.201C1147.41 216.331 1147.19 216.507 1147.03 216.729C1146.88 216.95 1146.8 217.201 1146.8 217.48H1144.45C1144.45 217.064 1144.56 216.66 1144.76 216.27C1144.96 215.879 1145.25 215.531 1145.64 215.225C1146.02 214.919 1146.48 214.678 1147.01 214.502C1147.55 214.326 1148.15 214.238 1148.81 214.238C1149.6 214.238 1150.31 214.372 1150.92 214.639C1151.54 214.906 1152.02 215.309 1152.37 215.85C1152.73 216.383 1152.91 217.054 1152.91 217.861V222.559C1152.91 223.04 1152.94 223.473 1153.01 223.857C1153.08 224.235 1153.18 224.564 1153.31 224.844V225H1150.9C1150.79 224.746 1150.7 224.424 1150.64 224.033C1150.58 223.636 1150.55 223.252 1150.55 222.881ZM1150.89 218.574L1150.91 220.029H1149.22C1148.78 220.029 1148.4 220.072 1148.07 220.156C1147.74 220.234 1147.46 220.352 1147.24 220.508C1147.02 220.664 1146.85 220.853 1146.74 221.074C1146.63 221.296 1146.57 221.546 1146.57 221.826C1146.57 222.106 1146.64 222.363 1146.77 222.598C1146.9 222.826 1147.09 223.005 1147.34 223.135C1147.59 223.265 1147.9 223.33 1148.25 223.33C1148.73 223.33 1149.15 223.232 1149.51 223.037C1149.88 222.835 1150.16 222.591 1150.37 222.305C1150.58 222.012 1150.69 221.735 1150.7 221.475L1151.47 222.52C1151.39 222.786 1151.25 223.073 1151.07 223.379C1150.88 223.685 1150.63 223.978 1150.32 224.258C1150.02 224.531 1149.66 224.756 1149.24 224.932C1148.82 225.107 1148.34 225.195 1147.79 225.195C1147.1 225.195 1146.49 225.059 1145.95 224.785C1145.41 224.505 1144.98 224.131 1144.68 223.662C1144.37 223.187 1144.22 222.65 1144.22 222.051C1144.22 221.491 1144.32 220.996 1144.53 220.566C1144.75 220.13 1145.06 219.766 1145.47 219.473C1145.89 219.18 1146.39 218.958 1146.99 218.809C1147.59 218.652 1148.28 218.574 1149.04 218.574H1150.89ZM1158.11 216.689V225H1155.75V214.434H1157.97L1158.11 216.689ZM1157.69 219.326L1156.92 219.316C1156.93 218.568 1157.04 217.881 1157.24 217.256C1157.45 216.631 1157.73 216.094 1158.1 215.645C1158.47 215.195 1158.91 214.85 1159.42 214.609C1159.94 214.362 1160.51 214.238 1161.14 214.238C1161.65 214.238 1162.11 214.31 1162.52 214.453C1162.94 214.59 1163.29 214.814 1163.58 215.127C1163.88 215.439 1164.11 215.846 1164.27 216.348C1164.42 216.842 1164.5 217.451 1164.5 218.174V225H1162.14V218.164C1162.14 217.656 1162.06 217.256 1161.91 216.963C1161.77 216.663 1161.56 216.452 1161.28 216.328C1161.01 216.198 1160.66 216.133 1160.25 216.133C1159.85 216.133 1159.49 216.217 1159.17 216.387C1158.85 216.556 1158.58 216.787 1158.36 217.08C1158.15 217.373 1157.98 217.712 1157.86 218.096C1157.74 218.48 1157.69 218.89 1157.69 219.326ZM1171.62 223.32C1172.01 223.32 1172.35 223.245 1172.66 223.096C1172.97 222.939 1173.22 222.725 1173.41 222.451C1173.6 222.178 1173.71 221.862 1173.73 221.504H1175.95C1175.93 222.188 1175.73 222.809 1175.34 223.369C1174.95 223.929 1174.43 224.375 1173.79 224.707C1173.14 225.033 1172.43 225.195 1171.65 225.195C1170.84 225.195 1170.14 225.059 1169.54 224.785C1168.94 224.505 1168.44 224.121 1168.05 223.633C1167.65 223.145 1167.35 222.581 1167.15 221.943C1166.95 221.305 1166.86 220.622 1166.86 219.893V219.551C1166.86 218.822 1166.95 218.138 1167.15 217.5C1167.35 216.855 1167.65 216.289 1168.05 215.801C1168.44 215.312 1168.94 214.932 1169.54 214.658C1170.14 214.378 1170.84 214.238 1171.64 214.238C1172.49 214.238 1173.23 214.408 1173.87 214.746C1174.51 215.078 1175.01 215.544 1175.37 216.143C1175.74 216.735 1175.93 217.425 1175.95 218.213H1173.73C1173.71 217.822 1173.61 217.471 1173.44 217.158C1173.27 216.839 1173.03 216.585 1172.72 216.396C1172.41 216.208 1172.04 216.113 1171.61 216.113C1171.14 216.113 1170.74 216.211 1170.43 216.406C1170.12 216.595 1169.87 216.855 1169.7 217.188C1169.52 217.513 1169.39 217.881 1169.32 218.291C1169.25 218.695 1169.21 219.115 1169.21 219.551V219.893C1169.21 220.329 1169.25 220.752 1169.32 221.162C1169.39 221.572 1169.51 221.94 1169.69 222.266C1169.87 222.585 1170.12 222.842 1170.43 223.037C1170.74 223.226 1171.14 223.32 1171.62 223.32ZM1182.81 225.195C1182.03 225.195 1181.32 225.068 1180.69 224.814C1180.07 224.554 1179.53 224.193 1179.09 223.73C1178.66 223.268 1178.32 222.725 1178.09 222.1C1177.85 221.475 1177.73 220.801 1177.73 220.078V219.688C1177.73 218.861 1177.85 218.112 1178.1 217.441C1178.34 216.771 1178.67 216.198 1179.1 215.723C1179.53 215.241 1180.04 214.873 1180.62 214.619C1181.21 214.365 1181.85 214.238 1182.53 214.238C1183.28 214.238 1183.95 214.365 1184.51 214.619C1185.08 214.873 1185.55 215.231 1185.92 215.693C1186.3 216.149 1186.58 216.693 1186.76 217.324C1186.95 217.956 1187.04 218.652 1187.04 219.414V220.42H1178.88V218.73H1184.72V218.545C1184.7 218.122 1184.62 217.725 1184.46 217.354C1184.31 216.982 1184.08 216.683 1183.77 216.455C1183.46 216.227 1183.04 216.113 1182.52 216.113C1182.13 216.113 1181.78 216.198 1181.47 216.367C1181.18 216.53 1180.92 216.768 1180.72 217.08C1180.52 217.393 1180.36 217.77 1180.25 218.213C1180.15 218.649 1180.1 219.141 1180.1 219.688V220.078C1180.1 220.54 1180.16 220.97 1180.28 221.367C1180.41 221.758 1180.6 222.1 1180.85 222.393C1181.1 222.686 1181.4 222.917 1181.75 223.086C1182.1 223.249 1182.5 223.33 1182.95 223.33C1183.52 223.33 1184.02 223.216 1184.46 222.988C1184.91 222.76 1185.29 222.438 1185.62 222.021L1186.86 223.223C1186.63 223.555 1186.33 223.874 1185.97 224.18C1185.6 224.479 1185.16 224.723 1184.63 224.912C1184.11 225.101 1183.5 225.195 1182.81 225.195Z" fill="#222222"/>
<circle cx="1109" cy="148" r="16" fill="#FFEAB4"/>
<circle cx="1109" cy="148" r="10" fill="#F6CD60"/>
<path d="M642.849 22H639.812L639.831 20.0566H642.849C643.728 20.0566 644.463 19.8646 645.056 19.4805C645.655 19.0964 646.104 18.5462 646.404 17.8301C646.71 17.1139 646.863 16.2611 646.863 15.2715V14.5C646.863 13.7318 646.775 13.0514 646.599 12.459C646.43 11.8665 646.176 11.3685 645.837 10.9648C645.505 10.5612 645.095 10.2552 644.607 10.0469C644.125 9.83854 643.568 9.73438 642.937 9.73438H639.753V7.78125H642.937C643.881 7.78125 644.743 7.94076 645.525 8.25977C646.306 8.57227 646.98 9.02474 647.546 9.61719C648.119 10.2096 648.558 10.9193 648.864 11.7461C649.17 12.5729 649.323 13.4974 649.323 14.5195V15.2715C649.323 16.2936 649.17 17.2181 648.864 18.0449C648.558 18.8717 648.119 19.5814 647.546 20.1738C646.973 20.7598 646.29 21.2122 645.495 21.5312C644.708 21.8438 643.825 22 642.849 22ZM641.169 7.78125V22H638.718V7.78125H641.169ZM651.501 16.834V16.6094C651.501 15.8477 651.611 15.1413 651.833 14.4902C652.054 13.8327 652.373 13.263 652.79 12.7812C653.213 12.293 653.727 11.9154 654.333 11.6484C654.945 11.375 655.635 11.2383 656.403 11.2383C657.178 11.2383 657.868 11.375 658.473 11.6484C659.085 11.9154 659.603 12.293 660.026 12.7812C660.449 13.263 660.772 13.8327 660.993 14.4902C661.214 15.1413 661.325 15.8477 661.325 16.6094V16.834C661.325 17.5957 661.214 18.3021 660.993 18.9531C660.772 19.6042 660.449 20.1738 660.026 20.6621C659.603 21.1439 659.089 21.5215 658.483 21.7949C657.878 22.0618 657.191 22.1953 656.423 22.1953C655.648 22.1953 654.955 22.0618 654.343 21.7949C653.737 21.5215 653.223 21.1439 652.8 20.6621C652.376 20.1738 652.054 19.6042 651.833 18.9531C651.611 18.3021 651.501 17.5957 651.501 16.834ZM653.854 16.6094V16.834C653.854 17.3092 653.903 17.7585 654.001 18.1816C654.098 18.6048 654.251 18.9759 654.46 19.2949C654.668 19.6139 654.935 19.8646 655.261 20.0469C655.586 20.2292 655.973 20.3203 656.423 20.3203C656.859 20.3203 657.236 20.2292 657.555 20.0469C657.881 19.8646 658.148 19.6139 658.356 19.2949C658.565 18.9759 658.718 18.6048 658.815 18.1816C658.919 17.7585 658.971 17.3092 658.971 16.834V16.6094C658.971 16.1406 658.919 15.6979 658.815 15.2812C658.718 14.8581 658.561 14.4837 658.346 14.1582C658.138 13.8327 657.871 13.5788 657.546 13.3965C657.227 13.2077 656.846 13.1133 656.403 13.1133C655.96 13.1133 655.576 13.2077 655.251 13.3965C654.932 13.5788 654.668 13.8327 654.46 14.1582C654.251 14.4837 654.098 14.8581 654.001 15.2812C653.903 15.6979 653.854 16.1406 653.854 16.6094ZM673.922 11.4336V13.1523H667.965V11.4336H673.922ZM669.684 8.8457H672.037V19.0801C672.037 19.4056 672.083 19.6562 672.174 19.832C672.271 20.0013 672.405 20.1152 672.574 20.1738C672.743 20.2324 672.942 20.2617 673.17 20.2617C673.333 20.2617 673.489 20.252 673.639 20.2324C673.788 20.2129 673.909 20.1934 674 20.1738L674.01 21.9707C673.814 22.0293 673.587 22.0814 673.326 22.127C673.072 22.1725 672.779 22.1953 672.447 22.1953C671.907 22.1953 671.428 22.1009 671.012 21.9121C670.595 21.7168 670.27 21.401 670.035 20.9648C669.801 20.5286 669.684 19.9492 669.684 19.2266V8.8457ZM678.463 7V22H676.119V7H678.463ZM678.052 16.3262L677.291 16.3164C677.297 15.5872 677.398 14.9134 677.593 14.2949C677.795 13.6764 678.075 13.1393 678.433 12.6836C678.798 12.2214 679.234 11.8665 679.742 11.6191C680.25 11.3652 680.813 11.2383 681.431 11.2383C681.952 11.2383 682.421 11.3099 682.838 11.4531C683.261 11.5964 683.625 11.8275 683.931 12.1465C684.237 12.459 684.468 12.8691 684.625 13.377C684.787 13.8783 684.869 14.4902 684.869 15.2129V22H682.505V15.1934C682.505 14.6855 682.431 14.2819 682.281 13.9824C682.138 13.6829 681.926 13.4681 681.646 13.3379C681.366 13.2012 681.024 13.1328 680.621 13.1328C680.198 13.1328 679.823 13.2174 679.498 13.3867C679.179 13.556 678.912 13.7871 678.697 14.0801C678.482 14.373 678.319 14.7116 678.209 15.0957C678.104 15.4798 678.052 15.89 678.052 16.3262ZM692.31 22.1953C691.529 22.1953 690.822 22.0684 690.191 21.8145C689.566 21.554 689.032 21.1927 688.589 20.7305C688.153 20.2682 687.818 19.7246 687.583 19.0996C687.349 18.4746 687.232 17.8008 687.232 17.0781V16.6875C687.232 15.8607 687.352 15.112 687.593 14.4414C687.834 13.7708 688.169 13.1979 688.599 12.7227C689.029 12.2409 689.536 11.873 690.122 11.6191C690.708 11.3652 691.343 11.2383 692.027 11.2383C692.782 11.2383 693.443 11.3652 694.009 11.6191C694.575 11.873 695.044 12.2311 695.415 12.6934C695.793 13.1491 696.073 13.6927 696.255 14.3242C696.444 14.9557 696.538 15.6523 696.538 16.4141V17.4199H688.374V15.7305H694.214V15.5449C694.201 15.1217 694.116 14.7246 693.96 14.3535C693.81 13.9824 693.579 13.6829 693.267 13.4551C692.954 13.2272 692.538 13.1133 692.017 13.1133C691.626 13.1133 691.278 13.1979 690.972 13.3672C690.672 13.5299 690.422 13.7676 690.22 14.0801C690.018 14.3926 689.862 14.7702 689.751 15.2129C689.647 15.6491 689.595 16.1406 689.595 16.6875V17.0781C689.595 17.5404 689.657 17.9701 689.78 18.3672C689.911 18.7578 690.099 19.0996 690.347 19.3926C690.594 19.6855 690.894 19.9167 691.245 20.0859C691.597 20.2487 691.997 20.3301 692.446 20.3301C693.013 20.3301 693.517 20.2161 693.96 19.9883C694.403 19.7604 694.787 19.4382 695.113 19.0215L696.353 20.2227C696.125 20.5547 695.829 20.8737 695.464 21.1797C695.099 21.4792 694.654 21.7233 694.126 21.9121C693.605 22.1009 693 22.1953 692.31 22.1953ZM706.674 11.4336V22H704.311V11.4336H706.674ZM704.155 8.66016C704.155 8.30208 704.272 8.00586 704.506 7.77148C704.747 7.5306 705.079 7.41016 705.502 7.41016C705.919 7.41016 706.248 7.5306 706.489 7.77148C706.73 8.00586 706.85 8.30208 706.85 8.66016C706.85 9.01172 706.73 9.30469 706.489 9.53906C706.248 9.77344 705.919 9.89062 705.502 9.89062C705.079 9.89062 704.747 9.77344 704.506 9.53906C704.272 9.30469 704.155 9.01172 704.155 8.66016ZM711.986 13.6895V22H709.633V11.4336H711.85L711.986 13.6895ZM711.566 16.3262L710.805 16.3164C710.811 15.5677 710.915 14.8809 711.117 14.2559C711.326 13.6309 711.612 13.0938 711.977 12.6445C712.348 12.1953 712.79 11.8503 713.305 11.6094C713.819 11.362 714.392 11.2383 715.023 11.2383C715.531 11.2383 715.99 11.3099 716.4 11.4531C716.817 11.5898 717.172 11.8145 717.465 12.127C717.764 12.4395 717.992 12.8464 718.148 13.3477C718.305 13.8424 718.383 14.4512 718.383 15.1738V22H716.02V15.1641C716.02 14.6562 715.945 14.2559 715.795 13.9629C715.652 13.6634 715.44 13.4518 715.16 13.3281C714.887 13.1979 714.545 13.1328 714.135 13.1328C713.731 13.1328 713.37 13.2174 713.051 13.3867C712.732 13.556 712.462 13.7871 712.24 14.0801C712.025 14.373 711.859 14.7116 711.742 15.0957C711.625 15.4798 711.566 15.89 711.566 16.3262ZM727.113 19.1387C727.113 18.9043 727.054 18.6927 726.937 18.5039C726.82 18.3086 726.595 18.1328 726.263 17.9766C725.938 17.8203 725.456 17.6771 724.818 17.5469C724.258 17.4232 723.744 17.2767 723.275 17.1074C722.813 16.9316 722.416 16.7201 722.084 16.4727C721.752 16.2253 721.494 15.9323 721.312 15.5938C721.13 15.2552 721.039 14.8646 721.039 14.4219C721.039 13.9922 721.133 13.5853 721.322 13.2012C721.511 12.8171 721.781 12.4785 722.132 12.1855C722.484 11.8926 722.91 11.6615 723.412 11.4922C723.92 11.3229 724.486 11.2383 725.111 11.2383C725.996 11.2383 726.755 11.388 727.386 11.6875C728.024 11.9805 728.513 12.3809 728.851 12.8887C729.19 13.39 729.359 13.9564 729.359 14.5879H727.005C727.005 14.3079 726.934 14.0475 726.791 13.8066C726.654 13.5592 726.446 13.3607 726.166 13.2109C725.886 13.0547 725.534 12.9766 725.111 12.9766C724.707 12.9766 724.372 13.0417 724.105 13.1719C723.845 13.2956 723.649 13.4583 723.519 13.6602C723.395 13.862 723.334 14.0833 723.334 14.3242C723.334 14.5 723.366 14.6595 723.431 14.8027C723.503 14.9395 723.62 15.0664 723.783 15.1836C723.946 15.2943 724.167 15.3984 724.447 15.4961C724.733 15.5938 725.091 15.6882 725.521 15.7793C726.328 15.9486 727.022 16.1667 727.601 16.4336C728.187 16.694 728.636 17.0326 728.949 17.4492C729.261 17.8594 729.418 18.3802 729.418 19.0117C729.418 19.4805 729.317 19.9102 729.115 20.3008C728.92 20.6849 728.633 21.0202 728.255 21.3066C727.878 21.5866 727.425 21.8047 726.898 21.9609C726.377 22.1172 725.791 22.1953 725.14 22.1953C724.183 22.1953 723.373 22.026 722.709 21.6875C722.045 21.3424 721.54 20.903 721.195 20.3691C720.856 19.8288 720.687 19.2689 720.687 18.6895H722.963C722.989 19.1257 723.109 19.474 723.324 19.7344C723.545 19.9883 723.819 20.1738 724.144 20.291C724.476 20.4017 724.818 20.457 725.17 20.457C725.593 20.457 725.948 20.4017 726.234 20.291C726.52 20.1738 726.739 20.0176 726.888 19.8223C727.038 19.6204 727.113 19.3926 727.113 19.1387ZM734.241 13.4648V26.0625H731.888V11.4336H734.056L734.241 13.4648ZM741.126 16.6191V16.8242C741.126 17.5924 741.035 18.3053 740.853 18.9629C740.677 19.6139 740.413 20.1836 740.062 20.6719C739.717 21.1536 739.29 21.528 738.782 21.7949C738.275 22.0618 737.689 22.1953 737.025 22.1953C736.367 22.1953 735.791 22.0749 735.296 21.834C734.808 21.5866 734.394 21.2383 734.056 20.7891C733.717 20.3398 733.444 19.8125 733.236 19.207C733.034 18.5951 732.89 17.9245 732.806 17.1953V16.4043C732.89 15.6296 733.034 14.9264 733.236 14.2949C733.444 13.6634 733.717 13.1198 734.056 12.6641C734.394 12.2083 734.808 11.8568 735.296 11.6094C735.784 11.362 736.354 11.2383 737.005 11.2383C737.669 11.2383 738.258 11.3685 738.773 11.6289C739.287 11.8828 739.72 12.2474 740.071 12.7227C740.423 13.1914 740.687 13.7578 740.863 14.4219C741.038 15.0794 741.126 15.8118 741.126 16.6191ZM738.773 16.8242V16.6191C738.773 16.1309 738.727 15.6784 738.636 15.2617C738.545 14.8385 738.402 14.4674 738.206 14.1484C738.011 13.8294 737.76 13.582 737.454 13.4062C737.155 13.224 736.793 13.1328 736.37 13.1328C735.954 13.1328 735.596 13.2044 735.296 13.3477C734.997 13.4844 734.746 13.6764 734.544 13.9238C734.342 14.1712 734.186 14.4609 734.075 14.793C733.965 15.1185 733.887 15.4733 733.841 15.8574V17.752C733.919 18.2207 734.053 18.6504 734.241 19.041C734.43 19.4316 734.697 19.7441 735.042 19.9785C735.394 20.2064 735.843 20.3203 736.39 20.3203C736.813 20.3203 737.174 20.2292 737.474 20.0469C737.773 19.8646 738.017 19.6139 738.206 19.2949C738.402 18.9694 738.545 18.5951 738.636 18.1719C738.727 17.7487 738.773 17.2995 738.773 16.8242ZM748.186 22.1953C747.405 22.1953 746.699 22.0684 746.067 21.8145C745.442 21.554 744.908 21.1927 744.466 20.7305C744.029 20.2682 743.694 19.7246 743.46 19.0996C743.225 18.4746 743.108 17.8008 743.108 17.0781V16.6875C743.108 15.8607 743.229 15.112 743.47 14.4414C743.71 13.7708 744.046 13.1979 744.475 12.7227C744.905 12.2409 745.413 11.873 745.999 11.6191C746.585 11.3652 747.22 11.2383 747.903 11.2383C748.658 11.2383 749.319 11.3652 749.886 11.6191C750.452 11.873 750.921 12.2311 751.292 12.6934C751.669 13.1491 751.949 13.6927 752.132 14.3242C752.32 14.9557 752.415 15.6523 752.415 16.4141V17.4199H744.251V15.7305H750.091V15.5449C750.078 15.1217 749.993 14.7246 749.837 14.3535C749.687 13.9824 749.456 13.6829 749.143 13.4551C748.831 13.2272 748.414 13.1133 747.893 13.1133C747.503 13.1133 747.154 13.1979 746.848 13.3672C746.549 13.5299 746.298 13.7676 746.096 14.0801C745.895 14.3926 745.738 14.7702 745.628 15.2129C745.524 15.6491 745.471 16.1406 745.471 16.6875V17.0781C745.471 17.5404 745.533 17.9701 745.657 18.3672C745.787 18.7578 745.976 19.0996 746.223 19.3926C746.471 19.6855 746.77 19.9167 747.122 20.0859C747.473 20.2487 747.874 20.3301 748.323 20.3301C748.889 20.3301 749.394 20.2161 749.837 19.9883C750.279 19.7604 750.664 19.4382 750.989 19.0215L752.229 20.2227C752.001 20.5547 751.705 20.8737 751.341 21.1797C750.976 21.4792 750.53 21.7233 750.003 21.9121C749.482 22.1009 748.876 22.1953 748.186 22.1953ZM758.967 20.3203C759.351 20.3203 759.696 20.2454 760.002 20.0957C760.315 19.9395 760.566 19.7246 760.754 19.4512C760.95 19.1777 761.057 18.862 761.077 18.5039H763.293C763.28 19.1875 763.079 19.8092 762.688 20.3691C762.297 20.929 761.78 21.375 761.135 21.707C760.491 22.0326 759.778 22.1953 758.996 22.1953C758.189 22.1953 757.486 22.0586 756.887 21.7852C756.288 21.5052 755.79 21.1211 755.393 20.6328C754.996 20.1445 754.696 19.5814 754.495 18.9434C754.299 18.3053 754.202 17.6217 754.202 16.8926V16.5508C754.202 15.8216 754.299 15.138 754.495 14.5C754.696 13.8555 754.996 13.2891 755.393 12.8008C755.79 12.3125 756.288 11.9316 756.887 11.6582C757.486 11.3783 758.186 11.2383 758.987 11.2383C759.833 11.2383 760.575 11.4076 761.213 11.7461C761.851 12.0781 762.353 12.5436 762.717 13.1426C763.088 13.735 763.28 14.4251 763.293 15.2129H761.077C761.057 14.8223 760.959 14.4707 760.784 14.1582C760.614 13.8392 760.373 13.5853 760.061 13.3965C759.755 13.2077 759.387 13.1133 758.957 13.1133C758.482 13.1133 758.088 13.2109 757.776 13.4062C757.463 13.5951 757.219 13.8555 757.043 14.1875C756.868 14.513 756.741 14.8809 756.663 15.291C756.591 15.6947 756.555 16.1146 756.555 16.5508V16.8926C756.555 17.3288 756.591 17.752 756.663 18.1621C756.734 18.5723 756.858 18.9401 757.034 19.2656C757.216 19.5846 757.463 19.8418 757.776 20.0371C758.088 20.2259 758.485 20.3203 758.967 20.3203ZM770.344 11.4336V13.1523H764.387V11.4336H770.344ZM766.105 8.8457H768.459V19.0801C768.459 19.4056 768.505 19.6562 768.596 19.832C768.693 20.0013 768.827 20.1152 768.996 20.1738C769.165 20.2324 769.364 20.2617 769.592 20.2617C769.755 20.2617 769.911 20.252 770.061 20.2324C770.21 20.2129 770.331 20.1934 770.422 20.1738L770.432 21.9707C770.236 22.0293 770.008 22.0814 769.748 22.127C769.494 22.1725 769.201 22.1953 768.869 22.1953C768.329 22.1953 767.85 22.1009 767.434 21.9121C767.017 21.7168 766.691 21.401 766.457 20.9648C766.223 20.5286 766.105 19.9492 766.105 19.2266V8.8457ZM775.08 11.4336V22H772.716V11.4336H775.08ZM772.56 8.66016C772.56 8.30208 772.677 8.00586 772.912 7.77148C773.153 7.5306 773.485 7.41016 773.908 7.41016C774.324 7.41016 774.653 7.5306 774.894 7.77148C775.135 8.00586 775.255 8.30208 775.255 8.66016C775.255 9.01172 775.135 9.30469 774.894 9.53906C774.653 9.77344 774.324 9.89062 773.908 9.89062C773.485 9.89062 773.153 9.77344 772.912 9.53906C772.677 9.30469 772.56 9.01172 772.56 8.66016ZM777.609 16.834V16.6094C777.609 15.8477 777.719 15.1413 777.941 14.4902C778.162 13.8327 778.481 13.263 778.898 12.7812C779.321 12.293 779.835 11.9154 780.441 11.6484C781.053 11.375 781.743 11.2383 782.511 11.2383C783.286 11.2383 783.976 11.375 784.581 11.6484C785.193 11.9154 785.711 12.293 786.134 12.7812C786.557 13.263 786.879 13.8327 787.101 14.4902C787.322 15.1413 787.433 15.8477 787.433 16.6094V16.834C787.433 17.5957 787.322 18.3021 787.101 18.9531C786.879 19.6042 786.557 20.1738 786.134 20.6621C785.711 21.1439 785.196 21.5215 784.591 21.7949C783.986 22.0618 783.299 22.1953 782.53 22.1953C781.756 22.1953 781.062 22.0618 780.45 21.7949C779.845 21.5215 779.331 21.1439 778.907 20.6621C778.484 20.1738 778.162 19.6042 777.941 18.9531C777.719 18.3021 777.609 17.5957 777.609 16.834ZM779.962 16.6094V16.834C779.962 17.3092 780.011 17.7585 780.109 18.1816C780.206 18.6048 780.359 18.9759 780.568 19.2949C780.776 19.6139 781.043 19.8646 781.368 20.0469C781.694 20.2292 782.081 20.3203 782.53 20.3203C782.967 20.3203 783.344 20.2292 783.663 20.0469C783.989 19.8646 784.256 19.6139 784.464 19.2949C784.672 18.9759 784.825 18.6048 784.923 18.1816C785.027 17.7585 785.079 17.3092 785.079 16.834V16.6094C785.079 16.1406 785.027 15.6979 784.923 15.2812C784.825 14.8581 784.669 14.4837 784.454 14.1582C784.246 13.8327 783.979 13.5788 783.654 13.3965C783.335 13.2077 782.954 13.1133 782.511 13.1133C782.068 13.1133 781.684 13.2077 781.359 13.3965C781.04 13.5788 780.776 13.8327 780.568 14.1582C780.359 14.4837 780.206 14.8581 780.109 15.2812C780.011 15.6979 779.962 16.1406 779.962 16.6094ZM792.139 13.6895V22H789.786V11.4336H792.003L792.139 13.6895ZM791.72 16.3262L790.958 16.3164C790.964 15.5677 791.068 14.8809 791.27 14.2559C791.479 13.6309 791.765 13.0938 792.13 12.6445C792.501 12.1953 792.943 11.8503 793.458 11.6094C793.972 11.362 794.545 11.2383 795.177 11.2383C795.684 11.2383 796.143 11.3099 796.554 11.4531C796.97 11.5898 797.325 11.8145 797.618 12.127C797.917 12.4395 798.145 12.8464 798.302 13.3477C798.458 13.8424 798.536 14.4512 798.536 15.1738V22H796.173V15.1641C796.173 14.6562 796.098 14.2559 795.948 13.9629C795.805 13.6634 795.593 13.4518 795.313 13.3281C795.04 13.1979 794.698 13.1328 794.288 13.1328C793.884 13.1328 793.523 13.2174 793.204 13.3867C792.885 13.556 792.615 13.7871 792.393 14.0801C792.179 14.373 792.012 14.7116 791.895 15.0957C791.778 15.4798 791.72 15.89 791.72 16.3262Z" fill="#222222"/>
<circle cx="718" cy="84" r="16" fill="#FFEAB4"/>
<circle cx="718" cy="84" r="10" fill="#F6CD60"/>
<path d="M1425.44 19.4023L1429.18 7.78125H1431.89L1426.79 22H1424.96L1425.44 19.4023ZM1421.98 7.78125L1425.69 19.4023L1426.2 22H1424.37L1419.29 7.78125H1421.98ZM1436.16 11.4336V22H1433.8V11.4336H1436.16ZM1433.64 8.66016C1433.64 8.30208 1433.76 8.00586 1433.99 7.77148C1434.24 7.5306 1434.57 7.41016 1434.99 7.41016C1435.41 7.41016 1435.74 7.5306 1435.98 7.77148C1436.22 8.00586 1436.34 8.30208 1436.34 8.66016C1436.34 9.01172 1436.22 9.30469 1435.98 9.53906C1435.74 9.77344 1435.41 9.89062 1434.99 9.89062C1434.57 9.89062 1434.24 9.77344 1433.99 9.53906C1433.76 9.30469 1433.64 9.01172 1433.64 8.66016ZM1445.07 19.1387C1445.07 18.9043 1445.01 18.6927 1444.89 18.5039C1444.78 18.3086 1444.55 18.1328 1444.22 17.9766C1443.89 17.8203 1443.41 17.6771 1442.77 17.5469C1442.21 17.4232 1441.7 17.2767 1441.23 17.1074C1440.77 16.9316 1440.37 16.7201 1440.04 16.4727C1439.71 16.2253 1439.45 15.9323 1439.27 15.5938C1439.09 15.2552 1438.99 14.8646 1438.99 14.4219C1438.99 13.9922 1439.09 13.5853 1439.28 13.2012C1439.47 12.8171 1439.74 12.4785 1440.09 12.1855C1440.44 11.8926 1440.87 11.6615 1441.37 11.4922C1441.87 11.3229 1442.44 11.2383 1443.07 11.2383C1443.95 11.2383 1444.71 11.388 1445.34 11.6875C1445.98 11.9805 1446.47 12.3809 1446.81 12.8887C1447.15 13.39 1447.31 13.9564 1447.31 14.5879H1444.96C1444.96 14.3079 1444.89 14.0475 1444.75 13.8066C1444.61 13.5592 1444.4 13.3607 1444.12 13.2109C1443.84 13.0547 1443.49 12.9766 1443.07 12.9766C1442.66 12.9766 1442.33 13.0417 1442.06 13.1719C1441.8 13.2956 1441.6 13.4583 1441.47 13.6602C1441.35 13.862 1441.29 14.0833 1441.29 14.3242C1441.29 14.5 1441.32 14.6595 1441.39 14.8027C1441.46 14.9395 1441.58 15.0664 1441.74 15.1836C1441.9 15.2943 1442.12 15.3984 1442.4 15.4961C1442.69 15.5938 1443.05 15.6882 1443.48 15.7793C1444.28 15.9486 1444.98 16.1667 1445.56 16.4336C1446.14 16.694 1446.59 17.0326 1446.9 17.4492C1447.22 17.8594 1447.37 18.3802 1447.37 19.0117C1447.37 19.4805 1447.27 19.9102 1447.07 20.3008C1446.87 20.6849 1446.59 21.0202 1446.21 21.3066C1445.83 21.5866 1445.38 21.8047 1444.85 21.9609C1444.33 22.1172 1443.75 22.1953 1443.1 22.1953C1442.14 22.1953 1441.33 22.026 1440.66 21.6875C1440 21.3424 1439.5 20.903 1439.15 20.3691C1438.81 19.8288 1438.64 19.2689 1438.64 18.6895H1440.92C1440.94 19.1257 1441.06 19.474 1441.28 19.7344C1441.5 19.9883 1441.77 20.1738 1442.1 20.291C1442.43 20.4017 1442.77 20.457 1443.12 20.457C1443.55 20.457 1443.9 20.4017 1444.19 20.291C1444.48 20.1738 1444.69 20.0176 1444.84 19.8223C1444.99 19.6204 1445.07 19.3926 1445.07 19.1387ZM1452.35 11.4336V22H1449.99V11.4336H1452.35ZM1449.83 8.66016C1449.83 8.30208 1449.95 8.00586 1450.19 7.77148C1450.43 7.5306 1450.76 7.41016 1451.18 7.41016C1451.6 7.41016 1451.93 7.5306 1452.17 7.77148C1452.41 8.00586 1452.53 8.30208 1452.53 8.66016C1452.53 9.01172 1452.41 9.30469 1452.17 9.53906C1451.93 9.77344 1451.6 9.89062 1451.18 9.89062C1450.76 9.89062 1450.43 9.77344 1450.19 9.53906C1449.95 9.30469 1449.83 9.01172 1449.83 8.66016ZM1460.17 11.4336V13.1523H1454.22V11.4336H1460.17ZM1455.94 8.8457H1458.29V19.0801C1458.29 19.4056 1458.34 19.6562 1458.43 19.832C1458.52 20.0013 1458.66 20.1152 1458.83 20.1738C1459 20.2324 1459.2 20.2617 1459.42 20.2617C1459.59 20.2617 1459.74 20.252 1459.89 20.2324C1460.04 20.2129 1460.16 20.1934 1460.25 20.1738L1460.26 21.9707C1460.07 22.0293 1459.84 22.0814 1459.58 22.127C1459.33 22.1725 1459.03 22.1953 1458.7 22.1953C1458.16 22.1953 1457.68 22.1009 1457.26 21.9121C1456.85 21.7168 1456.52 21.401 1456.29 20.9648C1456.05 20.5286 1455.94 19.9492 1455.94 19.2266V8.8457ZM1467.32 16.834V16.6094C1467.32 15.8477 1467.43 15.1413 1467.65 14.4902C1467.88 13.8327 1468.2 13.263 1468.61 12.7812C1469.03 12.293 1469.55 11.9154 1470.15 11.6484C1470.77 11.375 1471.46 11.2383 1472.22 11.2383C1473 11.2383 1473.69 11.375 1474.3 11.6484C1474.91 11.9154 1475.42 12.293 1475.85 12.7812C1476.27 13.263 1476.59 13.8327 1476.81 14.4902C1477.04 15.1413 1477.15 15.8477 1477.15 16.6094V16.834C1477.15 17.5957 1477.04 18.3021 1476.81 18.9531C1476.59 19.6042 1476.27 20.1738 1475.85 20.6621C1475.42 21.1439 1474.91 21.5215 1474.31 21.7949C1473.7 22.0618 1473.01 22.1953 1472.24 22.1953C1471.47 22.1953 1470.78 22.0618 1470.16 21.7949C1469.56 21.5215 1469.04 21.1439 1468.62 20.6621C1468.2 20.1738 1467.88 19.6042 1467.65 18.9531C1467.43 18.3021 1467.32 17.5957 1467.32 16.834ZM1469.68 16.6094V16.834C1469.68 17.3092 1469.72 17.7585 1469.82 18.1816C1469.92 18.6048 1470.07 18.9759 1470.28 19.2949C1470.49 19.6139 1470.76 19.8646 1471.08 20.0469C1471.41 20.2292 1471.8 20.3203 1472.24 20.3203C1472.68 20.3203 1473.06 20.2292 1473.38 20.0469C1473.7 19.8646 1473.97 19.6139 1474.18 19.2949C1474.39 18.9759 1474.54 18.6048 1474.64 18.1816C1474.74 17.7585 1474.79 17.3092 1474.79 16.834V16.6094C1474.79 16.1406 1474.74 15.6979 1474.64 15.2812C1474.54 14.8581 1474.38 14.4837 1474.17 14.1582C1473.96 13.8327 1473.69 13.5788 1473.37 13.3965C1473.05 13.2077 1472.67 13.1133 1472.22 13.1133C1471.78 13.1133 1471.4 13.2077 1471.07 13.3965C1470.75 13.5788 1470.49 13.8327 1470.28 14.1582C1470.07 14.4837 1469.92 14.8581 1469.82 15.2812C1469.72 15.6979 1469.68 16.1406 1469.68 16.6094ZM1481.88 13.4453V22H1479.53V11.4336H1481.78L1481.88 13.4453ZM1485.12 11.3652L1485.1 13.5527C1484.95 13.5267 1484.8 13.5072 1484.63 13.4941C1484.46 13.4811 1484.3 13.4746 1484.14 13.4746C1483.74 13.4746 1483.38 13.5332 1483.07 13.6504C1482.77 13.7611 1482.51 13.9238 1482.3 14.1387C1482.1 14.347 1481.94 14.6009 1481.83 14.9004C1481.72 15.1999 1481.66 15.5352 1481.64 15.9062L1481.1 15.9453C1481.1 15.2812 1481.17 14.666 1481.3 14.0996C1481.43 13.5332 1481.62 13.0352 1481.88 12.6055C1482.15 12.1758 1482.48 11.8405 1482.88 11.5996C1483.28 11.3587 1483.75 11.2383 1484.28 11.2383C1484.42 11.2383 1484.57 11.2513 1484.73 11.2773C1484.9 11.3034 1485.03 11.3327 1485.12 11.3652ZM1498.73 19.5098V11.4336H1501.09V22H1498.86L1498.73 19.5098ZM1499.06 17.3125L1499.85 17.293C1499.85 18.0026 1499.77 18.6569 1499.62 19.2559C1499.46 19.8483 1499.22 20.3659 1498.89 20.8086C1498.57 21.2448 1498.15 21.5866 1497.64 21.834C1497.14 22.0749 1496.53 22.1953 1495.82 22.1953C1495.3 22.1953 1494.83 22.1204 1494.4 21.9707C1493.97 21.821 1493.6 21.5898 1493.29 21.2773C1492.98 20.9648 1492.74 20.5579 1492.58 20.0566C1492.41 19.5553 1492.32 18.9564 1492.32 18.2598V11.4336H1494.67V18.2793C1494.67 18.6634 1494.72 18.9857 1494.81 19.2461C1494.9 19.5 1495.03 19.7051 1495.18 19.8613C1495.34 20.0176 1495.52 20.1283 1495.73 20.1934C1495.94 20.2585 1496.16 20.291 1496.39 20.291C1497.06 20.291 1497.59 20.1608 1497.98 19.9004C1498.37 19.6335 1498.64 19.2754 1498.81 18.8262C1498.98 18.377 1499.06 17.8724 1499.06 17.3125ZM1509.83 19.1387C1509.83 18.9043 1509.77 18.6927 1509.66 18.5039C1509.54 18.3086 1509.31 18.1328 1508.98 17.9766C1508.66 17.8203 1508.17 17.6771 1507.54 17.5469C1506.98 17.4232 1506.46 17.2767 1505.99 17.1074C1505.53 16.9316 1505.13 16.7201 1504.8 16.4727C1504.47 16.2253 1504.21 15.9323 1504.03 15.5938C1503.85 15.2552 1503.76 14.8646 1503.76 14.4219C1503.76 13.9922 1503.85 13.5853 1504.04 13.2012C1504.23 12.8171 1504.5 12.4785 1504.85 12.1855C1505.2 11.8926 1505.63 11.6615 1506.13 11.4922C1506.64 11.3229 1507.2 11.2383 1507.83 11.2383C1508.71 11.2383 1509.47 11.388 1510.1 11.6875C1510.74 11.9805 1511.23 12.3809 1511.57 12.8887C1511.91 13.39 1512.08 13.9564 1512.08 14.5879H1509.72C1509.72 14.3079 1509.65 14.0475 1509.51 13.8066C1509.37 13.5592 1509.16 13.3607 1508.88 13.2109C1508.6 13.0547 1508.25 12.9766 1507.83 12.9766C1507.43 12.9766 1507.09 13.0417 1506.82 13.1719C1506.56 13.2956 1506.37 13.4583 1506.24 13.6602C1506.11 13.862 1506.05 14.0833 1506.05 14.3242C1506.05 14.5 1506.08 14.6595 1506.15 14.8027C1506.22 14.9395 1506.34 15.0664 1506.5 15.1836C1506.66 15.2943 1506.88 15.3984 1507.16 15.4961C1507.45 15.5938 1507.81 15.6882 1508.24 15.7793C1509.05 15.9486 1509.74 16.1667 1510.32 16.4336C1510.91 16.694 1511.35 17.0326 1511.67 17.4492C1511.98 17.8594 1512.14 18.3802 1512.14 19.0117C1512.14 19.4805 1512.03 19.9102 1511.83 20.3008C1511.64 20.6849 1511.35 21.0202 1510.97 21.3066C1510.6 21.5866 1510.14 21.8047 1509.62 21.9609C1509.1 22.1172 1508.51 22.1953 1507.86 22.1953C1506.9 22.1953 1506.09 22.026 1505.43 21.6875C1504.76 21.3424 1504.26 20.903 1503.91 20.3691C1503.57 19.8288 1503.41 19.2689 1503.41 18.6895H1505.68C1505.71 19.1257 1505.83 19.474 1506.04 19.7344C1506.26 19.9883 1506.54 20.1738 1506.86 20.291C1507.19 20.4017 1507.54 20.457 1507.89 20.457C1508.31 20.457 1508.67 20.4017 1508.95 20.291C1509.24 20.1738 1509.46 20.0176 1509.61 19.8223C1509.76 19.6204 1509.83 19.3926 1509.83 19.1387ZM1519.25 22.1953C1518.47 22.1953 1517.77 22.0684 1517.14 21.8145C1516.51 21.554 1515.98 21.1927 1515.53 20.7305C1515.1 20.2682 1514.76 19.7246 1514.53 19.0996C1514.29 18.4746 1514.18 17.8008 1514.18 17.0781V16.6875C1514.18 15.8607 1514.3 15.112 1514.54 14.4414C1514.78 13.7708 1515.11 13.1979 1515.54 12.7227C1515.97 12.2409 1516.48 11.873 1517.07 11.6191C1517.65 11.3652 1518.29 11.2383 1518.97 11.2383C1519.73 11.2383 1520.39 11.3652 1520.95 11.6191C1521.52 11.873 1521.99 12.2311 1522.36 12.6934C1522.74 13.1491 1523.02 13.6927 1523.2 14.3242C1523.39 14.9557 1523.48 15.6523 1523.48 16.4141V17.4199H1515.32V15.7305H1521.16V15.5449C1521.15 15.1217 1521.06 14.7246 1520.9 14.3535C1520.75 13.9824 1520.52 13.6829 1520.21 13.4551C1519.9 13.2272 1519.48 13.1133 1518.96 13.1133C1518.57 13.1133 1518.22 13.1979 1517.92 13.3672C1517.62 13.5299 1517.37 13.7676 1517.16 14.0801C1516.96 14.3926 1516.81 14.7702 1516.7 15.2129C1516.59 15.6491 1516.54 16.1406 1516.54 16.6875V17.0781C1516.54 17.5404 1516.6 17.9701 1516.72 18.3672C1516.86 18.7578 1517.04 19.0996 1517.29 19.3926C1517.54 19.6855 1517.84 19.9167 1518.19 20.0859C1518.54 20.2487 1518.94 20.3301 1519.39 20.3301C1519.96 20.3301 1520.46 20.2161 1520.9 19.9883C1521.35 19.7604 1521.73 19.4382 1522.06 19.0215L1523.3 20.2227C1523.07 20.5547 1522.77 20.8737 1522.41 21.1797C1522.04 21.4792 1521.6 21.7233 1521.07 21.9121C1520.55 22.1009 1519.94 22.1953 1519.25 22.1953ZM1533.97 19.6562L1536.41 11.4336H1537.92L1537.51 13.8945L1535.04 22H1533.7L1533.97 19.6562ZM1532.53 11.4336L1534.44 19.6953L1534.6 22H1533.09L1530.23 11.4336H1532.53ZM1540.2 19.5977L1542.05 11.4336H1544.34L1541.49 22H1539.99L1540.2 19.5977ZM1538.17 11.4336L1540.58 19.5586L1540.88 22H1539.54L1537.05 13.8848L1536.64 11.4336H1538.17ZM1551 22.1953C1550.22 22.1953 1549.51 22.0684 1548.88 21.8145C1548.26 21.554 1547.72 21.1927 1547.28 20.7305C1546.84 20.2682 1546.51 19.7246 1546.27 19.0996C1546.04 18.4746 1545.92 17.8008 1545.92 17.0781V16.6875C1545.92 15.8607 1546.04 15.112 1546.28 14.4414C1546.53 13.7708 1546.86 13.1979 1547.29 12.7227C1547.72 12.2409 1548.23 11.873 1548.81 11.6191C1549.4 11.3652 1550.03 11.2383 1550.72 11.2383C1551.47 11.2383 1552.13 11.3652 1552.7 11.6191C1553.27 11.873 1553.74 12.2311 1554.11 12.6934C1554.48 13.1491 1554.76 13.6927 1554.95 14.3242C1555.14 14.9557 1555.23 15.6523 1555.23 16.4141V17.4199H1547.07V15.7305H1552.91V15.5449C1552.89 15.1217 1552.81 14.7246 1552.65 14.3535C1552.5 13.9824 1552.27 13.6829 1551.96 13.4551C1551.65 13.2272 1551.23 13.1133 1550.71 13.1133C1550.32 13.1133 1549.97 13.1979 1549.66 13.3672C1549.36 13.5299 1549.11 13.7676 1548.91 14.0801C1548.71 14.3926 1548.55 14.7702 1548.44 15.2129C1548.34 15.6491 1548.29 16.1406 1548.29 16.6875V17.0781C1548.29 17.5404 1548.35 17.9701 1548.47 18.3672C1548.6 18.7578 1548.79 19.0996 1549.04 19.3926C1549.29 19.6855 1549.59 19.9167 1549.94 20.0859C1550.29 20.2487 1550.69 20.3301 1551.14 20.3301C1551.7 20.3301 1552.21 20.2161 1552.65 19.9883C1553.09 19.7604 1553.48 19.4382 1553.8 19.0215L1555.04 20.2227C1554.82 20.5547 1554.52 20.8737 1554.16 21.1797C1553.79 21.4792 1553.34 21.7233 1552.82 21.9121C1552.3 22.1009 1551.69 22.1953 1551 22.1953ZM1557.48 7H1559.83V19.7441L1559.6 22H1557.48V7ZM1566.72 16.6191V16.8242C1566.72 17.6055 1566.64 18.3249 1566.46 18.9824C1566.29 19.6335 1566.03 20.1999 1565.68 20.6816C1565.33 21.1634 1564.9 21.5378 1564.39 21.8047C1563.88 22.0651 1563.29 22.1953 1562.62 22.1953C1561.96 22.1953 1561.39 22.0716 1560.9 21.8242C1560.41 21.5768 1560 21.2253 1559.67 20.7695C1559.35 20.3138 1559.08 19.7702 1558.88 19.1387C1558.68 18.5072 1558.54 17.8105 1558.45 17.0488V16.3945C1558.54 15.6263 1558.68 14.9297 1558.88 14.3047C1559.08 13.6732 1559.35 13.1296 1559.67 12.6738C1560 12.2116 1560.41 11.8568 1560.89 11.6094C1561.38 11.362 1561.95 11.2383 1562.6 11.2383C1563.28 11.2383 1563.88 11.3685 1564.39 11.6289C1564.91 11.8893 1565.34 12.2604 1565.69 12.7422C1566.03 13.2174 1566.29 13.7839 1566.46 14.4414C1566.64 15.099 1566.72 15.8249 1566.72 16.6191ZM1564.37 16.8242V16.6191C1564.37 16.1439 1564.33 15.6979 1564.25 15.2812C1564.17 14.8581 1564.04 14.487 1563.86 14.168C1563.69 13.849 1563.45 13.5983 1563.14 13.416C1562.84 13.2272 1562.47 13.1328 1562.02 13.1328C1561.6 13.1328 1561.24 13.2044 1560.94 13.3477C1560.64 13.4909 1560.39 13.6862 1560.19 13.9336C1559.99 14.181 1559.83 14.4674 1559.71 14.793C1559.6 15.1185 1559.53 15.4701 1559.49 15.8477V17.6152C1559.55 18.1035 1559.67 18.5527 1559.86 18.9629C1560.05 19.3665 1560.33 19.6921 1560.68 19.9395C1561.03 20.1803 1561.48 20.3008 1562.04 20.3008C1562.47 20.3008 1562.84 20.2129 1563.14 20.0371C1563.44 19.8613 1563.68 19.6172 1563.85 19.3047C1564.03 18.9857 1564.16 18.6146 1564.24 18.1914C1564.33 17.7682 1564.37 17.3125 1564.37 16.8242ZM1575.04 19.1387C1575.04 18.9043 1574.98 18.6927 1574.87 18.5039C1574.75 18.3086 1574.53 18.1328 1574.19 17.9766C1573.87 17.8203 1573.39 17.6771 1572.75 17.5469C1572.19 17.4232 1571.67 17.2767 1571.21 17.1074C1570.74 16.9316 1570.35 16.7201 1570.01 16.4727C1569.68 16.2253 1569.42 15.9323 1569.24 15.5938C1569.06 15.2552 1568.97 14.8646 1568.97 14.4219C1568.97 13.9922 1569.06 13.5853 1569.25 13.2012C1569.44 12.8171 1569.71 12.4785 1570.06 12.1855C1570.41 11.8926 1570.84 11.6615 1571.34 11.4922C1571.85 11.3229 1572.42 11.2383 1573.04 11.2383C1573.93 11.2383 1574.69 11.388 1575.32 11.6875C1575.95 11.9805 1576.44 12.3809 1576.78 12.8887C1577.12 13.39 1577.29 13.9564 1577.29 14.5879H1574.94C1574.94 14.3079 1574.86 14.0475 1574.72 13.8066C1574.58 13.5592 1574.38 13.3607 1574.1 13.2109C1573.82 13.0547 1573.46 12.9766 1573.04 12.9766C1572.64 12.9766 1572.3 13.0417 1572.04 13.1719C1571.78 13.2956 1571.58 13.4583 1571.45 13.6602C1571.33 13.862 1571.26 14.0833 1571.26 14.3242C1571.26 14.5 1571.3 14.6595 1571.36 14.8027C1571.43 14.9395 1571.55 15.0664 1571.71 15.1836C1571.88 15.2943 1572.1 15.3984 1572.38 15.4961C1572.66 15.5938 1573.02 15.6882 1573.45 15.7793C1574.26 15.9486 1574.95 16.1667 1575.53 16.4336C1576.12 16.694 1576.57 17.0326 1576.88 17.4492C1577.19 17.8594 1577.35 18.3802 1577.35 19.0117C1577.35 19.4805 1577.25 19.9102 1577.05 20.3008C1576.85 20.6849 1576.56 21.0202 1576.19 21.3066C1575.81 21.5866 1575.36 21.8047 1574.83 21.9609C1574.31 22.1172 1573.72 22.1953 1573.07 22.1953C1572.11 22.1953 1571.3 22.026 1570.64 21.6875C1569.97 21.3424 1569.47 20.903 1569.13 20.3691C1568.79 19.8288 1568.62 19.2689 1568.62 18.6895H1570.89C1570.92 19.1257 1571.04 19.474 1571.25 19.7344C1571.48 19.9883 1571.75 20.1738 1572.07 20.291C1572.41 20.4017 1572.75 20.457 1573.1 20.457C1573.52 20.457 1573.88 20.4017 1574.16 20.291C1574.45 20.1738 1574.67 20.0176 1574.82 19.8223C1574.97 19.6204 1575.04 19.3926 1575.04 19.1387ZM1582.33 11.4336V22H1579.96V11.4336H1582.33ZM1579.81 8.66016C1579.81 8.30208 1579.93 8.00586 1580.16 7.77148C1580.4 7.5306 1580.73 7.41016 1581.16 7.41016C1581.57 7.41016 1581.9 7.5306 1582.14 7.77148C1582.38 8.00586 1582.5 8.30208 1582.5 8.66016C1582.5 9.01172 1582.38 9.30469 1582.14 9.53906C1581.9 9.77344 1581.57 9.89062 1581.16 9.89062C1580.73 9.89062 1580.4 9.77344 1580.16 9.53906C1579.93 9.30469 1579.81 9.01172 1579.81 8.66016ZM1590.15 11.4336V13.1523H1584.19V11.4336H1590.15ZM1585.91 8.8457H1588.27V19.0801C1588.27 19.4056 1588.31 19.6562 1588.4 19.832C1588.5 20.0013 1588.63 20.1152 1588.8 20.1738C1588.97 20.2324 1589.17 20.2617 1589.4 20.2617C1589.56 20.2617 1589.72 20.252 1589.87 20.2324C1590.02 20.2129 1590.14 20.1934 1590.23 20.1738L1590.24 21.9707C1590.04 22.0293 1589.81 22.0814 1589.55 22.127C1589.3 22.1725 1589.01 22.1953 1588.68 22.1953C1588.14 22.1953 1587.66 22.1009 1587.24 21.9121C1586.82 21.7168 1586.5 21.401 1586.26 20.9648C1586.03 20.5286 1585.91 19.9492 1585.91 19.2266V8.8457ZM1597.02 22.1953C1596.24 22.1953 1595.54 22.0684 1594.91 21.8145C1594.28 21.554 1593.75 21.1927 1593.3 20.7305C1592.87 20.2682 1592.53 19.7246 1592.3 19.0996C1592.06 18.4746 1591.95 17.8008 1591.95 17.0781V16.6875C1591.95 15.8607 1592.07 15.112 1592.31 14.4414C1592.55 13.7708 1592.88 13.1979 1593.31 12.7227C1593.74 12.2409 1594.25 11.873 1594.84 11.6191C1595.42 11.3652 1596.06 11.2383 1596.74 11.2383C1597.5 11.2383 1598.16 11.3652 1598.72 11.6191C1599.29 11.873 1599.76 12.2311 1600.13 12.6934C1600.51 13.1491 1600.79 13.6927 1600.97 14.3242C1601.16 14.9557 1601.25 15.6523 1601.25 16.4141V17.4199H1593.09V15.7305H1598.93V15.5449C1598.92 15.1217 1598.83 14.7246 1598.68 14.3535C1598.53 13.9824 1598.29 13.6829 1597.98 13.4551C1597.67 13.2272 1597.25 13.1133 1596.73 13.1133C1596.34 13.1133 1595.99 13.1979 1595.69 13.3672C1595.39 13.5299 1595.14 13.7676 1594.93 14.0801C1594.73 14.3926 1594.58 14.7702 1594.47 15.2129C1594.36 15.6491 1594.31 16.1406 1594.31 16.6875V17.0781C1594.31 17.5404 1594.37 17.9701 1594.5 18.3672C1594.63 18.7578 1594.81 19.0996 1595.06 19.3926C1595.31 19.6855 1595.61 19.9167 1595.96 20.0859C1596.31 20.2487 1596.71 20.3301 1597.16 20.3301C1597.73 20.3301 1598.23 20.2161 1598.68 19.9883C1599.12 19.7604 1599.5 19.4382 1599.83 19.0215L1601.07 20.2227C1600.84 20.5547 1600.54 20.8737 1600.18 21.1797C1599.81 21.4792 1599.37 21.7233 1598.84 21.9121C1598.32 22.1009 1597.71 22.1953 1597.02 22.1953Z" fill="#222222"/>
<circle cx="1511" cy="84" r="16" fill="#FFEAB4"/>
<circle cx="1511" cy="84" r="10" fill="#F6CD60"/>
<path d="M1145.5 145.5L1477 92" stroke="black" stroke-width="16" stroke-linecap="round"/>
<path d="M398 145.5L689.5 94" stroke="black" stroke-width="16" stroke-linecap="round"/>
<path d="M1138 147L1484.5 90.5" stroke="white" stroke-linecap="round"/>
<path d="M390.5 147L697 92" stroke="white" stroke-linecap="round"/>
<path d="M1 110L329 144.5" stroke="black" stroke-width="16" stroke-linecap="round" stroke-linejoin="round"/>
<path d="M1 110L336.5 145.5" stroke="white" stroke-linecap="round" stroke-linejoin="round"/>
<path d="M1548 90.5L1918.5 131" stroke="black" stroke-width="16" stroke-linecap="round"/>
<path d="M752.5 90.5L1072 144" stroke="black" stroke-width="16" stroke-linecap="round"/>
<path d="M1540.5 89.5L1918.5 131" stroke="white" stroke-linecap="round"/>
<path d="M745 88.5L1079.5 145.5" stroke="white" stroke-linecap="round"/>
</svg>
