<svg width="150" height="67" viewBox="0 0 150 67" fill="none" xmlns="http://www.w3.org/2000/svg">
<mask id="path-1-inside-1_1_137" fill="white">
<path fill-rule="evenodd" clip-rule="evenodd" d="M34.6936 12.1644L24.6394 15.426C22.4623 15.6049 18.9626 15.2826 15.6975 14.9818L15.6975 14.9818C11.9033 14.6323 8.4258 14.312 7.70816 14.8412C7.14591 15.2558 6.35715 19.1029 5.83761 23.4947C5.35911 23.5197 4.89142 23.6674 4.48235 23.9286C3.88187 24.3121 3.45391 24.9109 3.28752 25.6003C1.25327 34.0893 5.97916 37.0886 5.97916 37.0886L14.5331 42.1473L14.5667 42.1723L20.1889 33.0773L31.365 34.7009L38.7719 45.1893L38.9769 45.212C38.8921 45.6114 38.8208 46.0285 38.7586 46.3924L38.7585 46.3927L38.7585 46.3927C38.6736 46.8891 38.6056 47.2867 38.5435 47.4065C38.3269 47.8257 38.9624 48.3098 39.8812 48.415L107.506 56.1562C108.833 56.3081 109.318 55.7269 109.218 55.0688C109.208 54.9994 109.224 54.8265 109.245 54.5992L109.245 54.5992C109.316 53.8181 109.447 52.3941 108.793 52.3121L108.419 52.2649L112.452 51.5579L113.588 41.6352L130.363 41.2646L144.402 41.4486C144.473 40.8257 144.367 40.1697 144.181 39.5555C143.95 38.7991 143.506 38.1232 142.903 37.6068C142.728 37.4569 142.541 37.3223 142.346 37.2038C142.339 37.1028 142.333 36.9981 142.331 36.8902C142.302 35.5646 110.619 25.7907 110.376 25.8106L107.985 25.5368C107.985 25.5368 94.2571 14.6656 91.5699 13.0768C88.8827 11.4881 83.8297 9.67613 83.8297 9.67613C83.8297 9.67613 68.0956 7.37651 64.3107 7.2282C63.7365 7.2057 63.1742 7.18126 62.6161 7.15701C59.4951 7.02139 56.5079 6.89159 52.3415 7.13918C47.4301 7.43104 34.6936 12.1644 34.6936 12.1644Z"/>
</mask>
<path fill-rule="evenodd" clip-rule="evenodd" d="M34.6936 12.1644L24.6394 15.426C22.4623 15.6049 18.9626 15.2826 15.6975 14.9818L15.6975 14.9818C11.9033 14.6323 8.4258 14.312 7.70816 14.8412C7.14591 15.2558 6.35715 19.1029 5.83761 23.4947C5.35911 23.5197 4.89142 23.6674 4.48235 23.9286C3.88187 24.3121 3.45391 24.9109 3.28752 25.6003C1.25327 34.0893 5.97916 37.0886 5.97916 37.0886L14.5331 42.1473L14.5667 42.1723L20.1889 33.0773L31.365 34.7009L38.7719 45.1893L38.9769 45.212C38.8921 45.6114 38.8208 46.0285 38.7586 46.3924L38.7585 46.3927L38.7585 46.3927C38.6736 46.8891 38.6056 47.2867 38.5435 47.4065C38.3269 47.8257 38.9624 48.3098 39.8812 48.415L107.506 56.1562C108.833 56.3081 109.318 55.7269 109.218 55.0688C109.208 54.9994 109.224 54.8265 109.245 54.5992L109.245 54.5992C109.316 53.8181 109.447 52.3941 108.793 52.3121L108.419 52.2649L112.452 51.5579L113.588 41.6352L130.363 41.2646L144.402 41.4486C144.473 40.8257 144.367 40.1697 144.181 39.5555C143.95 38.7991 143.506 38.1232 142.903 37.6068C142.728 37.4569 142.541 37.3223 142.346 37.2038C142.339 37.1028 142.333 36.9981 142.331 36.8902C142.302 35.5646 110.619 25.7907 110.376 25.8106L107.985 25.5368C107.985 25.5368 94.2571 14.6656 91.5699 13.0768C88.8827 11.4881 83.8297 9.67613 83.8297 9.67613C83.8297 9.67613 68.0956 7.37651 64.3107 7.2282C63.7365 7.2057 63.1742 7.18126 62.6161 7.15701C59.4951 7.02139 56.5079 6.89159 52.3415 7.13918C47.4301 7.43104 34.6936 12.1644 34.6936 12.1644Z" fill="#FFDC81"/>
<path d="M24.6392 15.426L24.6802 15.9243L24.7382 15.9196L24.7935 15.9016L24.6392 15.426ZM34.6934 12.1644L34.8477 12.64L34.8577 12.6368L34.8676 12.6331L34.6934 12.1644ZM15.6973 14.9818L15.6404 15.4787L15.6514 15.4797L15.6973 14.9818ZM15.6973 14.9818L15.7542 14.4849L15.7432 14.4839L15.6973 14.9818ZM7.70797 14.8412L7.41122 14.4388L7.41122 14.4388L7.70797 14.8412ZM5.83742 23.4947L5.86346 23.994L6.28444 23.9721L6.33396 23.5534L5.83742 23.4947ZM4.48216 23.9286L4.21303 23.5072L4.21303 23.5072L4.48216 23.9286ZM3.28733 25.6003L2.80129 25.483L2.8011 25.4838L3.28733 25.6003ZM5.97897 37.0886L5.71105 37.5108L5.71768 37.515L5.72445 37.519L5.97897 37.0886ZM14.5329 42.1473L14.8307 41.7457L14.8098 41.7301L14.7874 41.7169L14.5329 42.1473ZM14.5665 42.1722L14.2687 42.5739L14.7057 42.898L14.9918 42.4351L14.5665 42.1722ZM20.1887 33.0772L20.2606 32.5824L19.9359 32.5353L19.7634 32.8143L20.1887 33.0772ZM31.3648 34.7009L31.7732 34.4125L31.6493 34.237L31.4367 34.2061L31.3648 34.7009ZM38.7717 45.1893L38.3633 45.4777L38.493 45.6614L38.7166 45.6862L38.7717 45.1893ZM38.9767 45.212L39.4658 45.3157L39.5803 44.7758L39.0317 44.715L38.9767 45.212ZM38.7584 46.3924L38.2655 46.3081L38.2645 46.314L38.7584 46.3924ZM38.7583 46.3927L38.2645 46.3143L38.2628 46.325L38.2616 46.3358L38.7583 46.3927ZM38.7583 46.3927L39.2512 46.477L39.2535 46.4633L39.2551 46.4496L38.7583 46.3927ZM38.5433 47.4065L38.0994 47.1763L38.0991 47.1769L38.5433 47.4065ZM109.218 55.0688L108.723 55.1398L108.723 55.1438L109.218 55.0688ZM109.244 54.5992L108.748 54.5423L108.747 54.5535L109.244 54.5992ZM109.244 54.5991L109.741 54.656L109.742 54.6448L109.244 54.5991ZM108.792 52.3121L108.73 52.8081L108.73 52.8082L108.792 52.3121ZM108.419 52.2648L108.333 51.7724L108.356 52.7609L108.419 52.2648ZM112.452 51.5578L112.538 52.0503L112.906 51.9858L112.948 51.6147L112.452 51.5578ZM113.587 41.6351L113.576 41.1353L113.14 41.1449L113.091 41.5783L113.587 41.6351ZM130.362 41.2646L130.369 40.7647L130.36 40.7645L130.351 40.7647L130.362 41.2646ZM144.402 41.4485L144.395 41.9485L144.847 41.9544L144.899 41.5054L144.402 41.4485ZM144.181 39.5555L144.659 39.4108L144.659 39.4093L144.181 39.5555ZM142.903 37.6067L142.578 37.9866L142.578 37.9866L142.903 37.6067ZM142.345 37.2038L141.847 37.2386L141.865 37.4973L142.087 37.6316L142.345 37.2038ZM142.331 36.8902L142.83 36.8795L142.83 36.8795L142.331 36.8902ZM110.376 25.8105L110.319 26.3073L110.368 26.3129L110.417 26.3089L110.376 25.8105ZM107.985 25.5368L107.674 25.9288L107.786 26.0173L107.928 26.0335L107.985 25.5368ZM91.5697 13.0768L91.8242 12.6464L91.8242 12.6464L91.5697 13.0768ZM83.8295 9.6761L83.9983 9.20545L83.9513 9.18858L83.9018 9.18136L83.8295 9.6761ZM64.3105 7.22817L64.3301 6.72855L64.3301 6.72855L64.3105 7.22817ZM62.6159 7.15698L62.6376 6.65746L62.6376 6.65746L62.6159 7.15698ZM52.3413 7.13915L52.371 7.63827L52.371 7.63827L52.3413 7.13915ZM24.7935 15.9016L34.8477 12.64L34.5391 11.6888L24.4849 14.9504L24.7935 15.9016ZM15.6514 15.4797C18.8955 15.7785 22.4487 16.1077 24.6802 15.9243L24.5983 14.9277C22.4755 15.1021 19.0294 14.7866 15.7432 14.4839L15.6514 15.4797ZM15.6404 15.4785L15.6404 15.4785L15.7542 14.485L15.7542 14.485L15.6404 15.4785ZM8.00472 15.2436C8.01622 15.2351 8.07426 15.2019 8.2187 15.1671C8.35553 15.1341 8.53704 15.1075 8.7654 15.0892C9.22204 15.0526 9.81937 15.0531 10.5288 15.0816C11.9464 15.1386 13.7498 15.3045 15.6514 15.4797L15.7432 14.4839C13.8506 14.3096 12.0181 14.1406 10.569 14.0824C9.84512 14.0533 9.20139 14.0511 8.68559 14.0924C8.42773 14.113 8.19019 14.1454 7.98466 14.1949C7.78674 14.2425 7.57913 14.315 7.41122 14.4388L8.00472 15.2436ZM6.33396 23.5534C6.5925 21.3679 6.91738 19.324 7.24573 17.7805C7.41022 17.0074 7.57336 16.3703 7.7263 15.9075C7.80303 15.6753 7.87343 15.4986 7.93508 15.3748C8.00589 15.2325 8.03618 15.2204 8.00472 15.2436L7.41122 14.4388C7.23919 14.5656 7.12184 14.7645 7.03987 14.9291C6.94873 15.1122 6.86121 15.3383 6.77681 15.5937C6.60749 16.1061 6.43555 16.7831 6.26762 17.5725C5.93115 19.1541 5.60188 21.2297 5.34088 23.436L6.33396 23.5534ZM4.75129 24.35C5.08662 24.1358 5.47039 24.0145 5.86346 23.994L5.81138 22.9954C5.24745 23.0248 4.69585 23.1988 4.21303 23.5072L4.75129 24.35ZM3.77338 25.7176C3.9093 25.1544 4.25911 24.6643 4.75129 24.35L4.21303 23.5072C3.50424 23.9599 2.99814 24.6673 2.80129 25.483L3.77338 25.7176ZM5.97897 37.0886C6.24689 36.6664 6.24718 36.6666 6.24744 36.6668C6.24751 36.6668 6.24776 36.667 6.24789 36.6671C6.24816 36.6672 6.24835 36.6674 6.24847 36.6674C6.24872 36.6676 6.24869 36.6676 6.24838 36.6674C6.24776 36.667 6.24605 36.6659 6.24328 36.664C6.23775 36.6603 6.228 36.6537 6.21439 36.6441C6.18716 36.6249 6.1445 36.5938 6.08914 36.5503C5.97837 36.4631 5.81707 36.3261 5.62698 36.1349C5.24685 35.7524 4.75226 35.1533 4.31536 34.3C3.44667 32.6033 2.78206 29.8544 3.77357 25.7168L2.8011 25.4838C1.75835 29.8352 2.43955 32.8305 3.42525 34.7557C3.91553 35.7133 4.47528 36.3946 4.91769 36.8398C5.13886 37.0623 5.33088 37.226 5.47061 37.336C5.5405 37.391 5.59738 37.4327 5.63839 37.4616C5.65889 37.476 5.67544 37.4873 5.68766 37.4954C5.69378 37.4995 5.69881 37.5028 5.70272 37.5054C5.70468 37.5067 5.70635 37.5077 5.70774 37.5086C5.70844 37.5091 5.70906 37.5095 5.70961 37.5098C5.70989 37.51 5.71024 37.5102 5.71038 37.5103C5.71072 37.5105 5.71105 37.5108 5.97897 37.0886ZM14.7874 41.7169L6.23349 36.6582L5.72445 37.519L14.2783 42.5776L14.7874 41.7169ZM14.8644 41.7706L14.8307 41.7457L14.235 42.5489L14.2687 42.5739L14.8644 41.7706ZM19.7634 32.8143L14.1412 41.9093L14.9918 42.4351L20.614 33.3402L19.7634 32.8143ZM31.4367 34.2061L20.2606 32.5824L20.1168 33.5721L31.2929 35.1957L31.4367 34.2061ZM39.1801 44.9008L31.7732 34.4125L30.9564 34.9893L38.3633 45.4777L39.1801 44.9008ZM39.0317 44.715L38.8268 44.6923L38.7166 45.6862L38.9216 45.7089L39.0317 44.715ZM39.2512 46.4767C39.3137 46.1112 39.3835 45.7039 39.4658 45.3157L38.4876 45.1082C38.4004 45.5189 38.3275 45.9457 38.2655 46.3081L39.2512 46.4767ZM39.2521 46.4711L39.2522 46.4708L38.2645 46.314L38.2645 46.3143L39.2521 46.4711ZM39.2551 46.4496L39.2551 46.4495L38.2616 46.3358L38.2616 46.3358L39.2551 46.4496ZM38.9872 47.6366C39.0295 47.555 39.0566 47.4626 39.0744 47.3957C39.0947 47.3195 39.1139 47.2317 39.1325 47.1391C39.1696 46.9541 39.2092 46.7226 39.2512 46.477L38.2655 46.3084C38.2226 46.5591 38.1857 46.7746 38.152 46.9425C38.1352 47.0263 38.1206 47.0914 38.1079 47.139C38.0928 47.1958 38.0882 47.198 38.0994 47.1763L38.9872 47.6366ZM39.9379 47.9182C39.5416 47.8728 39.2451 47.7485 39.088 47.6297C39.0091 47.57 38.993 47.533 38.9943 47.5363C39.0023 47.5559 39.0056 47.6011 38.9875 47.636L38.0991 47.1769C37.9727 47.4215 37.9742 47.6844 38.0691 47.9159C38.1574 48.1312 38.317 48.3003 38.4847 48.4272C38.821 48.6816 39.3017 48.8519 39.8241 48.9117L39.9379 47.9182ZM107.563 55.6594L39.9379 47.9182L39.8241 48.9117L107.449 56.653L107.563 55.6594ZM108.723 55.1438C108.751 55.323 108.7 55.438 108.594 55.5181C108.464 55.6169 108.162 55.7281 107.563 55.6594L107.449 56.653C108.176 56.7362 108.78 56.6327 109.199 56.3144C109.643 55.9772 109.785 55.4726 109.712 54.9937L108.723 55.1438ZM108.747 54.5535C108.736 54.6649 108.726 54.7721 108.721 54.8601C108.716 54.9316 108.709 55.0446 108.723 55.1398L109.713 54.9977C109.716 55.0196 109.714 55.0268 109.715 55.0051C109.715 54.9879 109.716 54.9623 109.718 54.9263C109.723 54.8537 109.732 54.7608 109.742 54.6449L108.747 54.5535ZM108.748 54.5423L108.748 54.5423L109.741 54.6561L109.741 54.656L108.748 54.5423ZM108.73 52.8082C108.678 52.8017 108.673 52.7589 108.702 52.8179C108.739 52.8918 108.775 53.0282 108.793 53.2366C108.828 53.6479 108.783 54.153 108.747 54.5534L109.742 54.6448C109.777 54.2642 109.834 53.6668 109.789 53.1503C109.767 52.8948 109.717 52.611 109.596 52.3705C109.469 52.1149 109.234 51.8634 108.855 51.8159L108.73 52.8082ZM108.356 52.7609L108.73 52.8081L108.855 51.816L108.482 51.7688L108.356 52.7609ZM112.365 51.0653L108.333 51.7724L108.505 52.7573L112.538 52.0503L112.365 51.0653ZM113.091 41.5783L111.955 51.501L112.948 51.6147L114.084 41.692L113.091 41.5783ZM130.351 40.7647L113.576 41.1353L113.598 42.135L130.374 41.7645L130.351 40.7647ZM144.408 40.9486L130.369 40.7647L130.356 41.7646L144.395 41.9485L144.408 40.9486ZM143.702 39.7002C143.876 40.2762 143.966 40.8598 143.905 41.3917L144.899 41.5054C144.98 40.7915 144.857 40.0632 144.659 39.4108L143.702 39.7002ZM142.578 37.9866C143.109 38.4416 143.499 39.0365 143.703 39.7017L144.659 39.4093C144.4 38.5616 143.903 37.8048 143.228 37.2269L142.578 37.9866ZM142.087 37.6316C142.259 37.736 142.423 37.8546 142.578 37.9866L143.228 37.2269C143.032 37.0592 142.823 36.9085 142.604 36.776L142.087 37.6316ZM141.831 36.9008C141.833 37.0188 141.839 37.1317 141.847 37.2386L142.844 37.1689C142.838 37.0737 142.833 36.9774 142.83 36.8795L141.831 36.9008ZM110.417 26.3089C110.367 26.313 110.328 26.308 110.323 26.3074C110.31 26.306 110.301 26.3044 110.298 26.3039C110.292 26.3027 110.291 26.3023 110.297 26.3037C110.308 26.3062 110.328 26.3113 110.36 26.3198C110.422 26.3365 110.514 26.3624 110.636 26.3975C110.879 26.4675 111.229 26.5715 111.673 26.7053C112.561 26.9727 113.817 27.3576 115.319 27.8244C118.322 28.758 122.303 30.0185 126.278 31.3209C130.254 32.6237 134.217 33.9668 137.186 35.0658C138.672 35.616 139.9 36.1015 140.753 36.4881C141.182 36.6824 141.501 36.845 141.707 36.9724C141.812 37.0373 141.869 37.0817 141.894 37.1053C141.906 37.1169 141.898 37.1116 141.884 37.0891C141.871 37.0687 141.833 37.0024 141.831 36.9008L142.83 36.8795C142.827 36.7365 142.773 36.6247 142.729 36.5548C142.683 36.4827 142.629 36.4239 142.58 36.3781C142.484 36.2869 142.361 36.2013 142.233 36.1217C141.971 35.9604 141.606 35.777 141.166 35.5773C140.28 35.1757 139.025 34.6803 137.533 34.128C134.546 33.0223 130.568 31.6745 126.589 30.3706C122.609 29.0664 118.622 27.8043 115.616 26.8695C114.112 26.4021 112.853 26.0163 111.962 25.7478C111.516 25.6136 111.161 25.5083 110.913 25.4367C110.79 25.401 110.69 25.373 110.618 25.3538C110.583 25.3443 110.551 25.336 110.524 25.3297C110.511 25.3267 110.494 25.323 110.477 25.3198C110.468 25.3183 110.454 25.3159 110.438 25.3141C110.429 25.3131 110.388 25.3079 110.335 25.3122L110.417 26.3089ZM107.928 26.0335L110.319 26.3073L110.433 25.3138L108.042 25.04L107.928 26.0335ZM91.3153 13.5072C92.6244 14.2812 96.6953 17.3694 100.479 20.298C102.362 21.7552 104.161 23.163 105.489 24.2065C106.153 24.7283 106.7 25.1589 107.08 25.4591C107.27 25.6091 107.419 25.7266 107.52 25.8065C107.57 25.8465 107.609 25.8771 107.635 25.8977C107.648 25.9079 107.658 25.9157 107.665 25.9209C107.668 25.9235 107.67 25.9255 107.672 25.9268C107.673 25.9275 107.673 25.928 107.674 25.9283C107.674 25.9284 107.674 25.9286 107.674 25.9286C107.674 25.9287 107.674 25.9288 107.985 25.5368C108.295 25.1448 108.295 25.1448 108.295 25.1447C108.295 25.1446 108.295 25.1445 108.295 25.1443C108.294 25.144 108.294 25.1435 108.293 25.1428C108.291 25.1415 108.289 25.1395 108.285 25.1369C108.279 25.1316 108.269 25.1238 108.256 25.1135C108.23 25.0928 108.191 25.0621 108.14 25.0221C108.039 24.942 107.89 24.8243 107.699 24.6741C107.319 24.3735 106.772 23.9424 106.107 23.4201C104.777 22.3757 102.976 20.9663 101.091 19.5072C97.3389 16.603 93.2022 13.4611 91.8242 12.6464L91.3153 13.5072ZM83.8295 9.6761C83.6608 10.1468 83.6608 10.1468 83.6608 10.1468C83.6608 10.1468 83.6608 10.1468 83.6609 10.1468C83.661 10.1468 83.6612 10.1469 83.6615 10.147C83.662 10.1472 83.6629 10.1475 83.664 10.1479C83.6663 10.1488 83.6698 10.15 83.6745 10.1517C83.6839 10.1551 83.6979 10.1602 83.7165 10.1669C83.7536 10.1803 83.8085 10.2003 83.8796 10.2264C84.0217 10.2786 84.2282 10.3551 84.4845 10.4518C84.9972 10.6454 85.7086 10.9199 86.5033 11.2437C88.1002 11.8944 90.0057 12.733 91.3153 13.5072L91.8242 12.6464C90.4465 11.8319 88.482 10.9701 86.8806 10.3176C86.0761 9.98984 85.3564 9.71209 84.8377 9.51627C84.5782 9.41833 84.3689 9.34081 84.2242 9.28769C84.1519 9.26113 84.0956 9.24066 84.0574 9.22679C84.0383 9.21986 84.0236 9.21457 84.0137 9.21099C84.0087 9.2092 84.005 9.20784 84.0024 9.20691C84.0011 9.20645 84.0001 9.20609 83.9994 9.20585C83.9991 9.20573 83.9988 9.20563 83.9986 9.20557C83.9985 9.20553 83.9985 9.2055 83.9984 9.20549C83.9983 9.20546 83.9983 9.20545 83.8295 9.6761ZM64.2909 7.72779C66.1538 7.80078 71.0047 8.40832 75.4226 9.00328C77.6244 9.29979 79.7082 9.5917 81.2416 9.8095C82.0083 9.91839 82.6373 10.0087 83.0746 10.0719C83.2933 10.1034 83.464 10.1282 83.58 10.145C83.638 10.1535 83.6824 10.1599 83.7122 10.1643C83.7271 10.1664 83.7384 10.1681 83.7459 10.1692C83.7497 10.1697 83.7525 10.1702 83.7544 10.1704C83.7553 10.1706 83.7561 10.1707 83.7565 10.1707C83.7568 10.1708 83.7569 10.1708 83.7571 10.1708C83.7572 10.1708 83.7572 10.1708 83.8295 9.6761C83.9018 9.18136 83.9018 9.18135 83.9016 9.18133C83.9015 9.18131 83.9013 9.18129 83.9011 9.18125C83.9006 9.18118 83.8999 9.18107 83.8989 9.18093C83.897 9.18065 83.8941 9.18023 83.8903 9.17968C83.8827 9.17857 83.8714 9.17691 83.8564 9.17473C83.8264 9.17036 83.782 9.16389 83.7238 9.15544C83.6075 9.13854 83.4365 9.11374 83.2175 9.08213C82.7796 9.01891 82.1498 8.92845 81.3823 8.81944C79.8473 8.60142 77.761 8.30916 75.5561 8.01223C71.1607 7.4203 66.2522 6.80387 64.3301 6.72855L64.2909 7.72779ZM62.5942 7.65651C63.1521 7.68076 63.7155 7.70524 64.2909 7.72779L64.3301 6.72855C63.7572 6.7061 63.1958 6.68171 62.6376 6.65746L62.5942 7.65651ZM52.371 7.63827C56.5099 7.39231 59.4752 7.52098 62.5942 7.65651L62.6376 6.65746C59.5146 6.52175 56.5055 6.39081 52.3116 6.64003L52.371 7.63827ZM34.6934 12.1644C34.8676 12.6331 34.8676 12.6331 34.8677 12.633C34.8678 12.633 34.8679 12.633 34.8681 12.6329C34.8684 12.6328 34.869 12.6326 34.8697 12.6323C34.8712 12.6317 34.8734 12.6309 34.8764 12.6298C34.8825 12.6276 34.8915 12.6242 34.9035 12.6198C34.9275 12.6109 34.9632 12.5977 35.0102 12.5805C35.1041 12.5459 35.2427 12.4952 35.421 12.4304C35.7776 12.3009 36.2928 12.1153 36.9266 11.8918C38.1943 11.4445 39.9352 10.8453 41.8285 10.2373C45.6405 9.01296 49.99 7.77976 52.371 7.63827L52.3116 6.64003C49.7811 6.79041 45.3068 8.06983 41.5227 9.28518C39.6179 9.89694 37.8677 10.4993 36.5939 10.9487C35.9569 11.1735 35.4387 11.36 35.0796 11.4905C34.9 11.5557 34.7602 11.6069 34.6651 11.6419C34.6176 11.6594 34.5812 11.6728 34.5567 11.6818C34.5445 11.6864 34.5351 11.6898 34.5289 11.6921C34.5257 11.6933 34.5234 11.6942 34.5217 11.6948C34.5209 11.6951 34.5203 11.6953 34.5199 11.6955C34.5197 11.6955 34.5195 11.6956 34.5194 11.6957C34.5193 11.6957 34.5192 11.6957 34.6934 12.1644Z" fill="black" mask="url(#path-1-inside-1_1_137)"/>
<path d="M74.2947 29.6305C74.2947 29.6305 70.9126 35.1141 70.5097 38.6332C70.3285 40.216 70.6691 42.117 71.0997 43.7254" fill="#E5E5E5"/>
<path d="M74.2947 29.6305C74.2947 29.6305 70.9126 35.1141 70.5097 38.6332C70.3285 40.216 70.6691 42.117 71.0997 43.7254" stroke="#263238" stroke-width="0.5" stroke-linecap="round" stroke-linejoin="round"/>
<path d="M50.4342 26.422L47.5407 26.0967C47.4102 26.0819 47.2839 26.0415 47.1691 25.9779C47.0542 25.9144 46.9531 25.8289 46.8713 25.7263C46.7896 25.6237 46.729 25.5061 46.6928 25.3802C46.6567 25.2542 46.6458 25.1224 46.6607 24.9923C46.6908 24.7291 46.8242 24.4885 47.0317 24.3232C47.2392 24.1579 47.5039 24.0814 47.7679 24.1103L50.6612 24.4401C50.7919 24.4544 50.9185 24.4944 51.0336 24.5578C51.1487 24.6211 51.2502 24.7066 51.332 24.8093C51.4138 24.912 51.4744 25.0299 51.5103 25.156C51.5462 25.2822 51.5567 25.4143 51.5412 25.5445C51.5268 25.6749 51.4868 25.8011 51.4233 25.916C51.3597 26.0308 51.2741 26.1319 51.1711 26.2135C51.0682 26.2951 50.9501 26.3556 50.8236 26.3913C50.6971 26.4271 50.5648 26.4376 50.4342 26.422Z" fill="white" stroke="#263238" stroke-width="0.5" stroke-linecap="round" stroke-linejoin="round"/>
<path d="M82.3799 30.079L79.4864 29.7537C79.3559 29.7388 79.2296 29.6984 79.1148 29.6348C79 29.5713 78.8988 29.4858 78.8171 29.3832C78.7354 29.2807 78.6747 29.163 78.6386 29.0371C78.6024 28.9112 78.5915 28.7794 78.6064 28.6492C78.6365 28.386 78.7699 28.1455 78.9774 27.9802C79.1849 27.8149 79.4496 27.7383 79.7136 27.7672L82.607 28.097C82.7377 28.1113 82.8642 28.1513 82.9794 28.2147C83.0945 28.2781 83.1959 28.3636 83.2777 28.4663C83.3595 28.5689 83.4202 28.6868 83.4561 28.813C83.492 28.9392 83.5024 29.0712 83.4869 29.2014C83.4726 29.3318 83.4325 29.4581 83.369 29.5729C83.3055 29.6877 83.2198 29.7889 83.1169 29.8704C83.014 29.952 82.8958 30.0125 82.7693 30.0483C82.6428 30.0841 82.5105 30.0945 82.3799 30.079Z" fill="white" stroke="#263238" stroke-width="0.5" stroke-linecap="round" stroke-linejoin="round"/>
<path d="M144.398 41.4481C144.398 41.4481 145.631 41.3281 145.804 43.1505C145.976 44.9728 146.056 46.3378 145.52 47.2837C144.984 48.2296 130.022 51.5034 130.652 47.6796C130.684 47.3999 126.728 40.7972 126.728 40.7972C126.728 40.7972 131.19 39.6274 131.39 39.5565C131.589 39.4857 144.398 41.4481 144.398 41.4481Z" fill="#E5E5E5"/>
<path d="M105.15 26.2799C105.15 26.2799 106.125 27.2114 107.246 26.8421C108.368 26.4728 108.635 25.6112 108.635 25.6112L107.989 25.5372L106.488 25.5242L105.15 26.2799Z" fill="#E1B645"/>
<path d="M36.6774 17.6351C36.6774 17.6351 37.0261 15.4207 37.847 14.5185C38.668 13.6163 48.9225 10.0927 52.9373 9.48467C56.952 8.87664 70.5953 10.0114 70.5953 10.0114L71.4458 22.6336L36.6774 17.6351Z" fill="#FFDC81"/>
<path d="M48.5443 18.8213L69.4178 21.6402L68.6706 10.5475C68.6706 10.5475 56.6814 9.55054 53.1528 10.0841C52.1603 10.2348 50.6429 10.623 48.9586 11.1208C48.831 13.5843 48.663 16.7711 48.5443 18.8213Z" fill="#263238"/>
<path d="M48.0101 11.4115C43.9041 12.6766 39.2339 14.4257 38.7532 14.9557C38.0322 15.7463 37.6214 17.3503 37.6214 17.3503L47.4289 18.6754L48.0101 11.4115Z" fill="#263238"/>
<path d="M70.5953 10.0114C70.5953 10.0114 82.0544 11.8454 84.5759 12.7984C87.0974 13.7515 93.0718 17.7255 95.5813 19.8464C97.4781 21.4479 99.788 24.138 101.181 25.8263C101.28 25.9464 101.34 26.0934 101.353 26.2479C101.366 26.4024 101.332 26.5572 101.255 26.6917C101.177 26.8263 101.061 26.9343 100.92 27.0016C100.779 27.0688 100.621 27.0922 100.467 27.0685L71.4456 22.6351L70.5953 10.0114Z" fill="#FFDC81"/>
<path d="M72.303 10.9666C72.303 10.9666 82.4862 12.5958 84.7262 13.4428C86.9663 14.2898 92.2768 17.8219 94.5069 19.706C96.1906 21.1291 99.1431 24.0413 100.381 25.5442C100.469 25.651 100.522 25.7816 100.533 25.9188C100.545 26.0559 100.514 26.1933 100.446 26.3128C100.377 26.4323 100.273 26.5282 100.149 26.5881C100.024 26.6479 99.8835 26.6688 99.7464 26.648L73.0551 22.1836L72.303 10.9666Z" fill="#263238"/>
<path d="M91.9391 13.3064L90.888 13.6472C90.8448 13.6612 90.8061 13.6864 90.776 13.7202C90.7459 13.754 90.7254 13.7951 90.7167 13.8394C90.708 13.8837 90.7113 13.9295 90.7263 13.9721C90.7414 14.0147 90.7675 14.0526 90.8022 14.0819L105.15 26.2815C105.15 26.2815 107.38 27.2718 107.985 25.5384C107.985 25.5368 94.251 14.7061 91.9391 13.3064Z" fill="#263238"/>
<path d="M132.97 44.9089C132.465 44.8305 131.99 45.5158 131.96 46.3491C131.928 47.2756 130.495 55.4422 131.851 55.5974L141.582 54.561C145.295 53.0565 145.777 48.8253 145.777 48.8253C145.898 47.7715 145.484 46.851 144.845 46.7516L132.97 44.9089Z" fill="#FFDC81"/>
<path opacity="0.1" d="M56.3546 9.93067L52.3636 19.3403L57.6866 20.0592L61.0705 10.0609L56.3546 9.93067Z" fill="#EAFCFC"/>
<path opacity="0.1" d="M62.4237 10.1285C62.4237 10.1285 58.8495 20.2161 59.0362 20.2414L60.4489 20.4325L64.1372 10.2286L62.4237 10.1285Z" fill="#EAFCFC"/>
<path opacity="0.1" d="M80.3406 12.3907L76.3945 22.7429L80.1513 23.361L83.7004 13.1078L80.3406 12.3907Z" fill="#EAFCFC"/>
<path opacity="0.1" d="M87.455 14.8418C86.9407 14.54 86.452 14.2666 86.0073 14.0347L82.9645 23.841L83.0721 23.8589L84.3736 24.077L87.455 14.8418Z" fill="#EAFCFC"/>
<path d="M26.6221 14.7838C26.6221 14.7838 28.3839 15.7618 30.0969 15.1816C31.8098 14.6014 46.7301 8.96228 47.7725 8.6625C48.8149 8.36272 47.0531 8.16817 47.0531 8.16817C47.0531 8.16817 41.1146 9.78554 38.2998 10.8849L26.6221 14.7838Z" fill="#183658"/>
<path d="M102.116 23.9299C102.195 23.9389 104.235 24.6749 104.235 24.6749C104.521 24.7986 104.757 25.015 104.904 25.2887C105.051 25.5624 105.1 25.8773 105.043 26.1819L104.876 27.0795C104.822 27.3708 104.674 27.6365 104.454 27.8368C104.234 28.0371 103.955 28.1611 103.658 28.1903C102.306 28.3237 101.247 28.32 101.257 28.2369C101.27 28.117 102.116 23.9299 102.116 23.9299Z" fill="white"/>
<path d="M12.3851 17.0346L7.24852 16.7909L6.63634 19.1309L6.10074 23.8098L8.81048 24.2001L12.3851 17.0346Z" fill="#D9D9D9" stroke="black" stroke-width="0.5"/>
<path d="M137.584 36.1868L142.264 37.4112L143.206 38.2076L144.109 39.3439L144.555 41.4608L141.157 41.0717L137.797 40.3428L137.584 36.1868Z" fill="#D9D9D9" stroke="black" stroke-width="0.5"/>
<circle cx="27.8684" cy="41.1867" r="11.9724" transform="rotate(6.53041 27.8684 41.1867)" fill="#263238"/>
<ellipse cx="28.888" cy="41.3034" rx="10.9462" ry="11.2882" transform="rotate(6.53041 28.888 41.3034)" fill="#878787"/>
<circle cx="28.5481" cy="41.2645" r="7.18342" transform="rotate(6.53041 28.5481 41.2645)" fill="white"/>
<circle cx="119.783" cy="50.3313" r="11.9724" transform="rotate(6.53041 119.783 50.3313)" fill="#263238"/>
<ellipse cx="120.803" cy="50.448" rx="10.9462" ry="11.2882" transform="rotate(6.53041 120.803 50.448)" fill="#878787"/>
<circle cx="120.463" cy="50.409" r="7.18342" transform="rotate(6.53041 120.463 50.409)" fill="white"/>
<path d="M100.045 33.2669C99.1392 33.888 98.4452 34.7639 98.0537 35.7805C97.4797 37.1953 95.826 43.0894 95.8121 47.2429" stroke="#263238" stroke-width="0.5" stroke-linecap="round" stroke-linejoin="round"/>
</svg>
