<svg width="581" height="210" viewBox="0 0 581 210" fill="none" xmlns="http://www.w3.org/2000/svg">
<path d="M507.584 176.906L526.457 189.442L521.427 201.049L547.742 207.765L572.606 190.889L533.883 173.777L507.584 176.906Z" fill="#263238" stroke="#263238" stroke-linecap="round" stroke-linejoin="round"/>
<path d="M42.7282 149.886L309.804 168.193C311.949 168.338 314.104 168.222 316.221 167.847L360.557 160.062C364.446 159.377 368.132 157.835 371.347 155.549C374.562 153.263 377.225 150.29 379.142 146.847C381.059 143.403 382.182 139.577 382.428 135.646C382.674 131.715 382.038 127.778 380.566 124.124L379.115 120.522C377.255 115.913 374.132 111.92 370.103 108.999C366.073 106.078 361.301 104.349 356.332 104.008L54.6165 83.3257C44.6518 82.6494 44.2892 88.2328 39.165 96.7731L30.9188 110.551C27.9036 115.582 26.65 121.47 27.3549 127.289C28.0599 133.108 30.6835 138.529 34.8133 142.698V142.698C39.3226 147.291 36.2796 149.446 42.7282 149.886Z" fill="#263238" stroke="#263238" stroke-linecap="round" stroke-linejoin="round"/>
<path d="M355.796 115.489L339.729 114.388L339.509 117.534C331.466 120.193 324.398 125.18 319.205 131.858C314.012 138.537 310.929 146.606 310.347 155.038C309.765 163.47 311.712 171.885 315.939 179.21C320.166 186.535 326.483 192.44 334.085 196.173L333.88 199.319L349.946 200.42C355.606 200.931 361.311 200.309 366.726 198.591C372.142 196.874 377.159 194.094 381.484 190.417C385.808 186.739 389.353 182.237 391.91 177.174C394.467 172.112 395.985 166.591 396.374 160.936C396.764 155.28 396.017 149.604 394.178 144.241C392.339 138.877 389.445 133.934 385.665 129.701C381.886 125.467 377.297 122.03 372.168 119.589C367.038 117.149 361.472 115.755 355.796 115.489V115.489Z" fill="#263238" stroke="#263238" stroke-linecap="round" stroke-linejoin="round"/>
<path d="M336.797 199.46C360.377 199.46 379.493 180.391 379.493 156.869C379.493 133.347 360.377 114.278 336.797 114.278C313.216 114.278 294.1 133.347 294.1 156.869C294.1 180.391 313.216 199.46 336.797 199.46Z" fill="#878787" stroke="#263238" stroke-linecap="round" stroke-linejoin="round"/>
<path d="M344.991 186.662C361.558 182.156 371.326 165.107 366.81 148.581C362.293 132.054 345.201 122.31 328.634 126.815C312.067 131.321 302.298 148.37 306.815 164.897C311.331 181.423 328.423 191.167 344.991 186.662Z" fill="white" stroke="#263238" stroke-linecap="round" stroke-linejoin="round"/>
<path d="M479.802 123.982L463.736 122.881C458.035 122.291 452.273 122.853 446.793 124.532C441.314 126.211 436.23 128.973 431.844 132.654C427.458 136.335 423.86 140.859 421.264 145.957C418.668 151.054 417.128 156.621 416.735 162.326C416.342 168.03 417.104 173.755 418.977 179.159C420.849 184.563 423.794 189.535 427.634 193.78C431.474 198.025 436.132 201.455 441.329 203.865C446.527 206.276 452.158 207.618 457.886 207.812L473.953 208.913C485.014 209.286 495.787 205.361 504.003 197.965C512.219 190.568 517.235 180.279 517.994 169.265C518.752 158.252 515.194 147.374 508.07 138.927C500.945 130.479 490.81 125.121 479.802 123.982Z" fill="#263238" stroke="#263238" stroke-linecap="round" stroke-linejoin="round"/>
<path d="M86.1661 97.0089L64.6601 95.5305L63.4145 113.633C55.9629 128.876 54.7528 146.414 60.0404 162.531L58.7947 180.634L80.3008 182.097C94.8221 183.103 107.909 164.796 109.517 141.362C111.125 117.927 100.687 97.9998 86.1661 97.0089Z" fill="#263238" stroke="#263238" stroke-linecap="round" stroke-linejoin="round"/>
<path d="M91.8969 137.295C93.55 113.738 83.0944 93.8175 68.5436 92.8015C53.9929 91.7854 40.857 110.059 39.2039 133.616C37.5508 157.173 48.0065 177.093 62.5573 178.109C77.108 179.125 90.2438 160.852 91.8969 137.295Z" fill="#878787" stroke="#263238" stroke-width="1.00245" stroke-linecap="round" stroke-linejoin="round"/>
<path d="M80.3443 139.357C81.4908 122.71 74.0819 108.644 63.7961 107.939C53.5102 107.234 44.2425 120.157 43.096 136.804C41.9495 153.452 49.3585 167.518 59.6443 168.223C69.9301 168.928 79.1978 156.004 80.3443 139.357Z" fill="white" stroke="#263238" stroke-linecap="round" stroke-linejoin="round"/>
<path d="M442.798 81.0295L394.472 35.6232C381.353 23.2915 364.351 15.8819 346.367 14.658L210.772 5.36279L294.81 70.885L442.798 81.0295Z" fill="#FFDC81" stroke="#263238" stroke-linecap="round" stroke-linejoin="round"/>
<path d="M398.224 41.1279C385.103 28.7996 368.103 21.3904 350.12 20.1627L238.537 12.5189C249.657 17.7135 259.383 25.4645 266.918 35.1356L294.778 70.8378L440.48 80.825L398.224 41.1279Z" fill="#263238" stroke="#263238" stroke-linecap="round" stroke-linejoin="round"/>
<path d="M294.746 70.885L291.104 70.6648L298.499 76.4369L317.198 77.7266L294.746 70.885Z" fill="white" stroke="#263238" stroke-linecap="round" stroke-linejoin="round"/>
<path d="M317.861 62.9739L291.104 70.6648L324.041 90.4347L432.013 128.512L574.388 156.539L563.966 130.682L317.861 62.9739Z" fill="#263238" stroke="#263238" stroke-linecap="round" stroke-linejoin="round"/>
<path d="M574.514 186.784L413.25 175.727L411.689 154.337L398.666 105.533L449.025 105.219L523.571 134.032L568.917 140.89L579.575 165.771L574.514 186.784Z" fill="#E5E5E5" stroke="#263238" stroke-linecap="round" stroke-linejoin="round"/>
<path d="M423.515 149.54L427.803 165.614C428.249 167.278 429.203 168.762 430.535 169.858C431.866 170.955 433.507 171.61 435.229 171.732L513.275 177.079L567.64 195.355C568.892 195.419 570.119 194.985 571.05 194.147C571.981 193.31 572.541 192.138 572.606 190.888L572.007 182.694C572.102 180.178 569.248 172.282 566.741 172.109L519.614 150.767L509.318 150.075L427.708 144.476C427.066 144.432 426.423 144.541 425.832 144.795C425.24 145.049 424.718 145.439 424.308 145.934C423.898 146.429 423.613 147.014 423.475 147.641C423.337 148.268 423.35 148.919 423.515 149.54V149.54Z" fill="#263238" stroke="#263238" stroke-linecap="round" stroke-linejoin="round"/>
<path d="M570.273 144.57L565.227 143.107L540.915 140.308L545.613 142.871L570.273 144.57Z" fill="white" stroke="#263238" stroke-linecap="round" stroke-linejoin="round"/>
<path d="M457.839 136.863L450.791 110.425L412.021 112.265L417.602 134.095L457.839 136.863Z" fill="white" stroke="#263238" stroke-linecap="round" stroke-linejoin="round"/>
<path d="M535.507 142.179L530.808 139.616L466.779 123.589L467.946 137.555L535.507 142.179Z" fill="#263238" stroke="#263238" stroke-linecap="round" stroke-linejoin="round"/>
<path d="M52.9295 56.667L101.807 18.1337C116.996 6.16722 136.104 0.264019 155.414 1.57231L210.598 5.36273C221.544 6.11589 232.207 9.1673 241.888 14.3171C251.569 19.4668 260.05 26.5988 266.776 35.2457L294.636 70.9479L52.9295 56.667Z" fill="#FFDC81" stroke="#263238" stroke-linecap="round" stroke-linejoin="round"/>
<path d="M78.5034 58.4284L120.428 23.0093C133.136 12.1093 149.614 6.60003 166.341 7.65893L213.515 10.8831C222.997 11.6166 232.201 14.4251 240.471 19.1088C248.742 23.7925 255.877 30.2364 261.368 37.9822L285.018 70.4917L78.5034 58.4284Z" fill="#263238" stroke="#263238" stroke-linecap="round" stroke-linejoin="round"/>
<path d="M187.2 9.07446C176.091 25.3201 169.09 44.0079 166.798 63.54L182.076 64.4365C183.653 49.9826 188.651 24.2204 204.15 10.2226L187.2 9.07446Z" fill="#878787" stroke="#263238" stroke-linecap="round" stroke-linejoin="round"/>
<path d="M132.174 15.0511C124.382 29.166 119.412 44.6566 117.542 60.6619L120.995 60.8506C122.572 47.6707 126.514 27.0357 136.935 12.7076C135.327 13.4469 133.735 14.2175 132.174 15.0511Z" fill="#878787" stroke="#263238" stroke-linecap="round" stroke-linejoin="round"/>
<path d="M261.163 69.0291L285.018 70.4132L266.319 44.6981L261.163 69.0291Z" fill="#878787" stroke="#263238" stroke-linecap="round" stroke-linejoin="round"/>
<path d="M262.235 53.4427L274.139 65.3959L273.839 69.784L256.401 68.5887L262.235 53.4427Z" fill="#263238" stroke="#263238" stroke-linecap="round" stroke-linejoin="round"/>
<path d="M257.222 48.3311L235.31 46.8295C232.365 46.6277 229.814 48.8456 229.611 51.7833L228.943 61.4803C228.741 64.418 230.965 66.9631 233.91 67.1649L255.821 68.6665C258.766 68.8684 261.318 66.6504 261.52 63.7127L262.188 54.0158C262.39 51.0781 260.167 48.5329 257.222 48.3311Z" fill="white" stroke="#263238" stroke-linecap="round" stroke-linejoin="round"/>
<path d="M288.25 143.611C289.07 131.705 293.548 104.417 330.19 106.933C357.94 108.836 363.79 148.785 363.79 148.785C363.79 148.785 364.767 166.086 369.103 173.305L371.657 177.598L377.964 178.023L413.282 175.727L411.705 154.337L398.682 105.581L294.778 70.9793L52.9453 56.8242L33.6309 62.2346C30.3003 62.7937 27.0391 63.7058 23.9026 64.9555C17.9427 67.3304 10.5324 71.1365 9.90172 74.691L0.883003 125.02C-0.488717 132.648 18.1004 141.204 25.2113 144.318L32.7321 149.335C30.5246 143.067 29.5243 136.44 29.7837 129.801C30.8559 114.294 38.6447 87.1003 64.4709 88.909C77.7624 89.8213 85.7562 93.0926 90.5967 98.0784L90.9751 98.5187C92.614 100.318 93.9361 102.382 94.8852 104.621C98.8073 111.995 101.219 120.073 101.98 128.386C103.857 147.841 110.195 157.404 116.486 159.983L117.463 160.392L296.449 172.66C290.994 163.459 287.588 153.283 288.25 143.611Z" fill="#FFDC81" stroke="#263238" stroke-linecap="round" stroke-linejoin="round"/>
<path d="M162.793 139.789C164.606 143.972 165.947 146.693 165.947 146.693Z" fill="white"/>
<path d="M162.793 139.789C164.606 143.972 165.947 146.693 165.947 146.693" stroke="#263238" stroke-linecap="round" stroke-linejoin="round"/>
<path d="M166.025 70.822C166.025 70.822 155.288 95.8136 155.288 110.991C155.288 117.817 157.464 125.744 159.86 132.381" fill="#E5E5E5"/>
<path d="M166.025 70.822C166.025 70.822 155.288 95.8136 155.288 110.991C155.288 117.817 157.464 125.744 159.86 132.381" stroke="#263238" stroke-linecap="round" stroke-linejoin="round"/>
<path d="M417.602 134.095L432.092 135.086L426.463 111.589L412.021 112.265L417.602 134.095Z" fill="#949494" stroke="#263238" stroke-linecap="round" stroke-linejoin="round"/>
<path d="M562.61 144.035L570.273 144.57L565.227 143.107L557.391 142.211L562.61 144.035Z" fill="white" stroke="#263238" stroke-linecap="round" stroke-linejoin="round"/>
<path d="M110.557 80.6677L100.341 79.9757C99.8798 79.9438 99.4298 79.8216 99.0165 79.6162C98.6031 79.4107 98.2343 79.1261 97.9312 78.7785C97.6282 78.4309 97.3967 78.0271 97.2501 77.5903C97.1035 77.1534 97.0446 76.692 97.0768 76.2325V76.2325C97.1415 75.303 97.5727 74.437 98.2759 73.8239C98.9792 73.2109 99.8973 72.9006 100.829 72.961L111.046 73.6688C111.508 73.6987 111.959 73.8195 112.373 74.0243C112.787 74.229 113.157 74.5137 113.46 74.8617C113.764 75.2098 113.995 75.6143 114.141 76.052C114.287 76.4898 114.344 76.952 114.31 77.4121C114.28 77.8724 114.159 78.3222 113.954 78.7355C113.748 79.1489 113.463 79.5176 113.114 79.8203C112.765 80.123 112.36 80.3538 111.921 80.4992C111.482 80.6447 111.019 80.7019 110.557 80.6677V80.6677Z" fill="white" stroke="#263238" stroke-linecap="round" stroke-linejoin="round"/>
<path d="M191.978 86.251L181.761 85.5433C181.299 85.5134 180.848 85.3926 180.434 85.1879C180.02 84.9831 179.65 84.6985 179.347 84.3504C179.043 84.0024 178.812 83.5978 178.666 83.16C178.52 82.7223 178.463 82.26 178.497 81.8V81.8C178.527 81.3397 178.648 80.8899 178.853 80.4766C179.059 80.0632 179.344 79.6946 179.693 79.3919C180.042 79.0891 180.447 78.8584 180.886 78.7129C181.325 78.5675 181.788 78.5102 182.25 78.5444L192.467 79.2364C193.398 79.301 194.266 79.7311 194.881 80.4326C195.496 81.1341 195.807 82.0499 195.746 82.9796C195.677 83.9104 195.243 84.7764 194.537 85.3892C193.831 86.0019 192.911 86.3116 191.978 86.251Z" fill="white" stroke="#263238" stroke-linecap="round" stroke-linejoin="round"/>
<path d="M278.065 155.941C278.525 158.697 279.275 161.396 280.304 163.994" stroke="#263238" stroke-linecap="round" stroke-linejoin="round"/>
<path d="M290.836 76.3898C286.586 80.1322 283.564 85.0648 282.164 90.5448C280.067 98.1886 275.085 129.597 277.434 151.05" stroke="#263238" stroke-linecap="round" stroke-linejoin="round"/>
<path d="M309.047 103.237C316.615 98.22 328.456 93.3916 342.615 97.8583C363.332 104.385 364.767 130.085 364.877 137.776" stroke="#263238" stroke-linecap="round" stroke-linejoin="round"/>
<path d="M299.997 110.928C301.532 109.218 303.21 107.639 305.011 106.21" stroke="#263238" stroke-linecap="round" stroke-linejoin="round"/>
<path d="M9.88587 74.5338L6.48016 93.5015L14.474 94.052L15.8142 74.6753L9.96468 74.2821C9.92906 74.3628 9.90264 74.4472 9.88587 74.5338V74.5338Z" fill="#E5E5E5" stroke="#263238" stroke-linecap="round" stroke-linejoin="round"/>
<path d="M394.567 66.0407L415.868 64.1219L437.815 46.3495L463.042 46.6011C463.042 46.6011 470.405 67.5978 490.335 80.1015C503.674 88.4844 532.227 89.8527 532.369 90.4347C532.748 91.8659 534.829 109.402 534.829 109.402C534.829 109.402 561.759 129.109 563.998 130.682C566.237 132.255 568.964 140.89 568.964 140.89L484.816 117.518L449.057 105.219L403.664 104.653L340.865 80.6204L306.335 71.0108C306.335 71.0108 378.516 59.0104 394.567 66.0407Z" fill="#FFDC81" stroke="#263238" stroke-linecap="round" stroke-linejoin="round"/>
<path d="M403.633 104.653L446.865 96.8831L484.785 117.518" stroke="#263238" stroke-linecap="round" stroke-linejoin="round"/>
<path d="M527.608 91.2368L508.735 99.431L485.888 101.523L525.432 112.265" stroke="#263238" stroke-linecap="round" stroke-linejoin="round"/>
<path d="M419.983 69.2335L476.507 99.4153" stroke="#263238" stroke-linecap="round" stroke-linejoin="round"/>
<mask id="mask0_1_15" style="mask-type:alpha" maskUnits="userSpaceOnUse" x="405" y="21" width="117" height="82">
<path d="M497.574 102.368L412.295 91.2504L414.255 80.768L405.755 66.9998L418.755 51.4998L405.755 45.4998L421.345 21.8378L506.623 32.9556L497.574 43L513.745 49.133L521.397 59.1678L511.236 64.8238L509.485 80.768L497.574 102.368Z" fill="#D9D9D9"/>
</mask>
<g mask="url(#mask0_1_15)">
<path d="M412.146 58.5856L391.081 47.293L383.087 40.4199L374.81 37.7462L368.046 33.7671L360.43 31.8325L350.466 33.2638C350.466 33.2638 355.196 35.7016 342.283 29.1903C329.37 22.6789 320.777 24.2045 320.777 24.2045" stroke="white" stroke-linecap="round" stroke-linejoin="round"/>
</g>
<path d="M545.613 142.871L579.575 165.771L570.273 144.57L545.613 142.871Z" fill="white" stroke="#263238" stroke-linecap="round" stroke-linejoin="round"/>
<path d="M176 176L218 178" stroke="#263238" stroke-linecap="round" stroke-linejoin="round"/>
<path d="M189 187L231 190" stroke="#263238" stroke-linecap="round" stroke-linejoin="round"/>
</svg>
